<?xml version="1.0" encoding="utf-8"?>
<!-- Generator: Adobe Illustrator 27.5.0, SVG Export Plug-In . SVG Version: 6.00 Build 0)  -->
<svg version="1.1" xmlns="http://www.w3.org/2000/svg" xmlns:xlink="http://www.w3.org/1999/xlink" x="0px" y="0px"
	 viewBox="0 0 500 500.001" style="enable-background:new 0 0 500 500.001;" xml:space="preserve">
<g id="BACKGROUND">
	<rect style="fill:#FFFFFF;" width="500" height="500"/>
</g>
<g id="OBJECTS">
	<g>
		<g>
			<path style="fill:#DEFFF7;" d="M86.445,408.14l328.504-5.098c0,0,75.995-159.222,27.79-189.557
				c-45.758-28.798-78.148,19.961-78.148,19.961S376.725,61.749,293.74,57.143c-111.336-6.179-132.473,161.758-132.473,161.758
				s-98.214-42.567-116.541,27.73C26.4,316.926,86.445,408.14,86.445,408.14z"/>
			<g>
				<ellipse style="fill:#CCE561;" cx="250" cy="415.071" rx="218.652" ry="27.952"/>
				<g style="opacity:0.2;">
					<ellipse style="fill:#5ABA47;" cx="340.414" cy="407.334" rx="71.426" ry="6.809"/>
					<ellipse style="fill:#5ABA47;" cx="137.578" cy="405.538" rx="75.162" ry="6.809"/>
				</g>
				<g>
					<path style="fill:#5ABA47;" d="M295.368,426.23c-1.115-0.942-2.538,0.017-3.525,1.108c-0.176-1.413-0.885-2.668-2.605-2.591
						c-1.356,0.061-2.081,1.024-2.39,2.171c-1.122-2.23-2.703-4.965-4.885-4.117c-2.498,0.971-0.635,5.179,0.641,6.354
						c0.143,0.132,0.385-0.038,0.275-0.213c-0.509-0.814-0.674-1.781-0.763-2.723c-0.098-1.05,0.143-3.247,1.705-1.628
						c1.333,1.382,1.984,3.38,2.998,4.985c0.387,0.611,1.275,0.207,1.137-0.48c-0.239-1.184-0.166-2.605,1.127-3.138
						c1.794-0.738,1.78,2.099,1.67,3.071c-0.061,0.532,0.775,0.736,1.003,0.271c0.184-0.429,0.433-0.817,0.748-1.167
						c0.839-1.056,3.052-1.247,2.524,0.549c-0.281,0.958-0.998,1.867-1.586,2.662c-0.352,0.475,0.442,0.93,0.789,0.461
						C295.342,430.307,297.248,427.818,295.368,426.23z"/>
					<path style="fill:#5ABA47;" d="M357.584,429.341c-0.957-0.366-2.173-0.863-2.737-1.771c-0.221-0.355-0.087-0.984,0.262-1.211
						c0.394-0.256,1.146,0.257,1.463,0.451c0.509,0.314,0.954,0.733,1.359,1.171c0.194,0.21,0.365,0.676,0.675,0.723
						c0.066,0.01,0.12-0.007,0.158-0.064c0.481-0.722-1.621-2.489-2.086-2.843c-1.263-0.96-2.629-0.63-3.206,0.852
						c-0.545,1.396,1.014,2.607,2.027,3.191c0.724,0.416,1.521,0.72,2.304,1.003c0.493,0.178,1.324,0.633,1.818,0.294
						c0.199-0.137,0.344-0.386,0.258-0.635C359.623,429.755,358.244,429.594,357.584,429.341z"/>
					<path style="fill:#5ABA47;" d="M361.597,424.028c-0.197-0.258-0.494-0.452-0.837-0.341c-1.108,0.363-1.964,1.294-1.993,2.503
						c-0.014,0.551,0.334,2.187,1.033,2.252c0.034,0.003,0.076-0.022,0.091-0.053c0.094-0.189,0.03-0.316-0.011-0.521
						c-0.078-0.393-0.037-0.811,0.053-1.197c0.127-0.549,0.313-1.033,0.724-1.327c0.221,0.385,0.423,0.778,0.595,1.19
						c0.269,0.646,0.357,1.308,0.989,1.685c0.372,0.222,0.866,0.014,0.981-0.399c0.196-0.704-0.198-1.278-0.494-1.907
						C362.413,425.246,362.044,424.614,361.597,424.028z"/>
					<path style="fill:#5ABA47;" d="M411.944,415.867c-1.48-1.2-3.153,0.287-4.167,1.65c-0.643-1.168-1.705-2.678-2.603-1.448
						c-0.314,0.43-0.369,1.039-0.462,1.546c-0.114,0.629-0.328,1.418-0.293,2.05c0.017,0.294,0.29,0.424,0.544,0.313
						c0.765-0.335,0.966-1.623,1.098-2.335c0.02-0.105,0.045-0.208,0.067-0.312c0.422,0.549,0.721,1.298,1.003,1.854
						c0.227,0.447,0.921,0.424,1.154,0c0.403-0.733,1.729-2.997,2.898-2.332c1.043,0.593-0.967,2.928-1.173,3.484
						c-0.157,0.425,0.373,0.752,0.723,0.556C412.111,420.122,413.484,417.117,411.944,415.867z"/>
					<path style="fill:#5ABA47;" d="M424.992,399.917c-1.416-0.779-2.848-0.323-4.199,0.354c0.133-0.473,0.172-0.975,0.081-1.511
						c-0.048-0.278-0.387-0.535-0.667-0.508c-1.971,0.194-4.665,2.081-3.483,4.305c0.146,0.273,0.493,0.111,0.524-0.142
						c0.159-1.309,1.059-2.34,2.273-2.667c-0.051,0.561-0.237,1.069-0.633,1.579c-0.355,0.457,0.104,1.263,0.675,0.875
						c0.945-0.645,1.941-1.223,3.022-1.607c0.611-0.218,2.517-0.402,2.315,0.854c-0.117,0.739-1.13,1.358-1.685,1.729
						c-0.492,0.328-0.013,1.132,0.461,0.789C424.74,403.197,427.058,401.054,424.992,399.917z"/>
					<path style="fill:#5ABA47;" d="M225.965,390.04c-1.551-0.57-3.039,0.407-4.063,1.599c-0.323-0.84-0.958-1.399-2.051-0.832
						c-0.955,0.496-1.481,1.56-1.679,2.661c-0.903-0.73-1.988-1.092-2.788,0.109c-1.125,1.69,1.432,3.146,2.688,3.356
						c0.406,0.068,0.546-0.458,0.168-0.609c-0.708-0.284-1.833-0.909-1.649-1.86c0.156-0.805,1.569,1.034,1.643,1.137
						c0.474,0.658,1.468,0.266,1.305-0.55c-0.164-0.818-0.013-1.618,0.34-2.366c0.54-1.146,1.051-1.023,1.208,0.242
						c0.061,0.485,0.728,0.797,1.007,0.273c0.612-1.15,1.472-2.143,2.777-2.472c2.201-0.554,1.141,2.432,0.668,3.303
						c-0.352,0.648,0.683,1.219,0.972,0.568C227.111,393.243,227.897,390.75,225.965,390.04z"/>
					<path style="fill:#5ABA47;" d="M262.275,390.528c-0.933,0.502-1.693,1.482-1.784,2.567c-0.061,0.728-0.121,2.296,0.491,2.831
						c0.145,0.127,0.397,0.128,0.496-0.064c0.28-0.54,0.076-1.38,0.173-1.985c0.105-0.649,0.287-1.273,0.684-1.753
						c0.24,0.75,0.352,1.534,0.546,2.303c0.101,0.395,0.725,0.413,0.815,0c0.274-1.275-0.025-2.495-0.555-3.671
						C262.995,390.434,262.553,390.379,262.275,390.528z"/>
					<path style="fill:#5ABA47;" d="M267.422,392.609c-0.624-0.294-1.365-0.245-1.936,0.148c-0.737,0.509-0.997,1.396-1.036,2.251
						c-0.027,0.6,0.852,0.572,0.914,0c0.054-0.492,0.213-1.059,0.649-1.35c0.309-0.206,0.631-0.182,0.888-0.04
						c0.246,0.136,0.397,0.427,0.353,0.739c-0.103,0.735-0.665,1.255-0.936,1.918c-0.173,0.42,0.357,0.652,0.671,0.516
						C268.522,396.123,269.163,393.432,267.422,392.609z"/>
					<path style="fill:#5ABA47;" d="M186.467,421.315c-2.688-1.623-5.026,1.558-5.929,4.094c-0.826-1.023-1.604-2.083-2.771-2.754
						c-0.359-0.206-0.921-0.033-1.005,0.409c-0.439,2.319,0.359,4.699,2.299,6.101c0.39,0.282,0.865-0.346,0.511-0.663
						c-1.135-1.02-1.647-2.485-1.61-3.971c0.905,0.871,1.563,2.018,2.409,2.94c0.354,0.386,1.142,0.222,1.236-0.326
						c0.29-1.682,1.75-5.149,3.942-4.542c2.343,0.649-0.328,4.013-0.105,5.189c0.044,0.229,0.311,0.432,0.542,0.413
						c1.295-0.106,1.711-2.104,1.893-3.152C188.132,423.593,187.787,422.111,186.467,421.315z"/>
					<path style="fill:#5ABA47;" d="M164.53,425.435c-1.035,0.141-2.014,0.89-2.156,1.959c-0.159,1.2,0.559,2.067,1.536,2.647
						c0.623,0.369,1.275-0.484,0.767-0.993c-0.397-0.397-0.986-1.056-0.866-1.67c0.158-0.81,1.443-0.884,2.051-0.754
						c1.53,0.329,2.905,1.75,4.005,2.789c0.169,0.159,0.469-0.051,0.331-0.256C168.961,427.313,166.977,425.104,164.53,425.435z"/>
					<path style="fill:#5ABA47;" d="M56.073,411.862c-1.477-0.967-4.151-2.643-6.028-2.108c-1.691,0.482-2.034,1.667-1.488,2.69
						c-1.728,0.359-3.475,1.246-4.739,2.259c-1.559,1.248-0.731,3.678,1.33,3.395c0.265-0.037,0.39-0.413,0.252-0.62
						c-0.18-0.27-1.175-1.045-1.056-1.3c0.302-0.646,1.299-1.042,1.897-1.331c1.207-0.581,2.764-1.095,4.118-1
						c0.782,0.055,1.07-1.106,0.397-1.463c-0.747-1.045-0.655-1.513,0.277-1.404c0.606-0.027,1.244,0.165,1.825,0.313
						c1,0.255,1.975,0.658,2.896,1.117C56.118,412.591,56.416,412.087,56.073,411.862z"/>
					<path style="fill:#5ABA47;" d="M61.127,407.43c-1.35-1.064-2.554-2.178-4.447-1.888c-0.331,0.051-0.485,0.447-0.417,0.735
						c0.302,1.286,1.55,3.405,3.16,2.754c0.127-0.052,0.139-0.224,0-0.272c-1.003-0.341-1.499-1.152-1.803-2.076
						c1.377,0.157,2.469,1.493,3.546,2.265c0.412,0.295,0.851-0.117,0.899-0.516c0.283-2.301,2.393-0.348,2.942,0.693
						c0.279,0.529,1.03,0.065,0.789-0.461C64.816,406.518,62.044,405.249,61.127,407.43z"/>
					<path style="fill:#5ABA47;" d="M122.865,421.237L122.865,421.237C122.875,421.252,122.866,421.245,122.865,421.237z"/>
					<path style="fill:#5ABA47;" d="M122.389,420.031c-1.551,0.493-2.168,2.456-2.128,3.908c0.016,0.593,0.88,0.586,0.914,0
						c0.058-1.008,0.461-2.169,1.416-2.659c0.129-0.066,0.169-0.057,0.289-0.052c-0.019-0.001-0.015,0.005-0.015,0.009
						c0.164,0.247,0.107,1,0.053,1.386c-0.104,0.748,0.898,1.066,1.152,0.318c0.262-0.77,0.438-1.658-0.052-2.38
						C123.651,420.018,123.003,419.835,122.389,420.031z"/>
					<path style="fill:#5ABA47;" d="M113.918,424.822c-0.002-0.934-0.036-1.806-0.15-2.734c-0.072-0.588-0.842-0.588-0.914,0
						c-0.148,1.215-0.325,2.868,0.152,4.112c-0.109-0.042-0.21-0.08-0.289-0.113c-0.751-0.32-1.526-0.526-2.338-0.616
						c-1.532-0.169-3.262,1.067-2.667,2.775c0.166,0.477,0.873,0.527,1.017,0c0.143-0.522,0.079-1.022,0.599-1.332
						c0.474-0.28,1.113-0.305,1.645-0.302c0.607,0.004,1.21,0.12,1.796,0.27c0.311,0.079,0.732,0.346,1.052,0.236
						c0.095-0.033,0.143-0.118,0.123-0.217c-0.019-0.09-0.07-0.168-0.136-0.241C113.972,426.045,113.92,425.469,113.918,424.822z"/>
					<path style="fill:#5ABA47;" d="M234.104,428.587c-1.171,0.6-2.311,1.916-2.782,3.251c-0.426-0.346-0.889-0.638-1.323-0.996
						c-0.198-0.164-0.59-0.143-0.643,0.17c-0.185,1.098-0.109,2.007,0.36,3.021c0.133,0.289,0.626,0.081,0.514-0.217
						c-0.257-0.683-0.327-1.304-0.246-1.972c0.424,0.346,0.855,0.679,1.185,1.129c0.222,0.303,0.773,0.328,0.868-0.113
						c0.209-0.976,0.942-1.808,1.599-2.523c0.345-0.375,0.738-0.692,1.184-0.938c0.63-0.347,0.775,0.166,0.946,0.679
						c0.157,0.472,0.923,0.415,0.898-0.121C236.594,428.422,235.383,427.932,234.104,428.587z"/>
					<path style="fill:#5ABA47;" d="M243.115,409.95c-2.117-0.918-4.827-2.43-6.842-0.526c-0.464,0.438,0.14,1.226,0.682,0.883
						c1.962-1.24,3.877-0.321,5.862,0.351C243.229,410.797,243.518,410.125,243.115,409.95z"/>
				</g>
				<g>
					<g>
						<path style="fill:#5ABA47;" d="M390.547,417.722c-6.62,2.417-11.084,8.098-13.974,14.307
							c-0.027,0.059,0.056,0.102,0.088,0.046c3.31-5.722,7.692-11.293,14.159-13.48C391.379,418.404,391.101,417.52,390.547,417.722
							z"/>
						<g>
							<path style="fill:#FFFFFF;" d="M395.149,425.677c1.359-0.352,1.299-1.952,0.88-3.014c-0.417-1.06-1.211-1.935-2.018-2.768
								c1.355,0.191,2.748,0.252,4.094,0.048c1.235-0.186,2.506-1.448,1.521-2.679c-0.846-1.059-2.771-0.924-3.965-0.861
								c-0.704,0.037-1.459,0.138-2.189,0.311c0.053-0.068,0.107-0.138,0.153-0.208c0.594-0.863,1.155-1.728,1.542-2.706
								c0.688-1.736-0.511-3.715-2.496-3.549c-1.9,0.16-2.063,2.541-2.06,3.992c0.001,0.681,0.018,1.414,0.07,2.148
								c-0.818-0.587-1.748-0.984-2.862-1.166c-1.276-0.21-3.491,0.123-3.078,1.937c0.324,1.416,2.043,1.59,3.238,1.736
								c0.268,0.033,0.535,0.055,0.803,0.071c-0.188,0.129-0.374,0.272-0.558,0.433c-1.128,0.976-2.193,2.817-0.65,3.946
								c1.12,0.816,2.758-0.031,3.768-0.632c0.11-0.067,0.237-0.143,0.373-0.228c0.12,0.381,0.264,0.757,0.435,1.121
								C392.625,424.631,393.864,426.009,395.149,425.677z"/>
							<path style="fill:#FFB452;" d="M391.653,420.146c-0.769,0.007-1.402-0.701-1.408-1.584c-0.009-0.881,0.61-1.603,1.38-1.608
								c0.771-0.008,1.402,0.701,1.41,1.582C393.044,419.418,392.425,420.14,391.653,420.146z"/>
						</g>
					</g>
					<g>
						<path style="fill:#5ABA47;" d="M282.688,374.387c6.033,3.642,9.324,10.074,10.969,16.723c0.016,0.063-0.075,0.09-0.096,0.027
							c-2.15-6.25-5.382-12.559-11.309-15.947C281.74,374.897,282.183,374.082,282.688,374.387z"/>
						<g>
							<path style="fill:#FFFFFF;" d="M279.984,379.858c0.238-0.325,0.451-0.666,0.643-1.018c0.116,0.109,0.227,0.209,0.322,0.296
								c0.875,0.784,2.32,1.93,3.576,1.343c1.73-0.811,1.039-2.823,0.119-3.996c-0.149-0.193-0.305-0.37-0.465-0.532
								c0.267,0.035,0.533,0.065,0.802,0.084c1.201,0.085,2.921,0.245,3.512-1.083c0.753-1.7-1.356-2.452-2.649-2.49
								c-1.129-0.036-2.117,0.176-3.033,0.594c0.192-0.71,0.35-1.427,0.481-2.095c0.282-1.423,0.579-3.791-1.255-4.313
								c-1.917-0.543-3.473,1.168-3.131,3.004c0.191,1.034,0.577,1.991,0.994,2.952c0.032,0.078,0.071,0.156,0.11,0.233
								c-0.683-0.311-1.404-0.555-2.088-0.726c-1.16-0.29-3.023-0.792-4.057,0.085c-1.203,1.018-0.198,2.501,0.978,2.92
								c1.281,0.459,2.659,0.667,4.026,0.739c-0.952,0.662-1.899,1.368-2.512,2.329c-0.615,0.962-0.982,2.521,0.284,3.127
								C277.842,381.883,279.322,380.769,279.984,379.858z"/>
							<path style="fill:#FFB452;" d="M281.137,376.553c0.753,0.154,1.511-0.419,1.686-1.284c0.178-0.862-0.291-1.689-1.045-1.843
								c-0.756-0.155-1.511,0.42-1.688,1.283C279.911,375.572,280.381,376.4,281.137,376.553z"/>
						</g>
					</g>
					<g>
						<path style="fill:#5ABA47;" d="M81.192,407.585c-3.716,2.227-5.087,7.41-5.17,11.468c-0.003,0.14,0.194,0.131,0.211,0
							c0.477-3.739,1.862-8.829,5.314-10.86C81.938,407.963,81.582,407.352,81.192,407.585z"/>
						<g>
							<path style="fill:#FFFFFF;" d="M78.349,401.099c-1.175,0.357-1.066,1.753-0.662,2.667c0.402,0.912,1.128,1.649,1.865,2.349
								c-1.193-0.118-2.412-0.121-3.582,0.104c-1.075,0.208-2.14,1.358-1.235,2.398c0.778,0.895,2.457,0.709,3.498,0.612
								c0.616-0.058,1.271-0.175,1.903-0.353c-0.045,0.064-0.088,0.126-0.127,0.188c-0.489,0.777-0.948,1.554-1.252,2.423
								c-0.539,1.543,0.581,3.23,2.31,3.014c1.657-0.207,1.714-2.296,1.659-3.564c-0.025-0.596-0.066-1.234-0.139-1.877
								c0.736,0.485,1.563,0.798,2.545,0.918c1.124,0.138,3.049-0.231,2.622-1.804c-0.334-1.227-1.844-1.318-2.894-1.402
								c-0.235-0.018-0.471-0.029-0.704-0.034c0.159-0.119,0.316-0.251,0.472-0.397c0.951-0.894,1.818-2.544,0.428-3.474
								c-1.009-0.676-2.411,0.124-3.271,0.686c-0.095,0.063-0.203,0.134-0.318,0.213c-0.121-0.33-0.259-0.65-0.423-0.966
								C80.594,401.923,79.462,400.763,78.349,401.099z"/>
							<path style="fill:#FFB452;" d="M81.604,405.81c0.673-0.032,1.251,0.566,1.289,1.336c0.038,0.771-0.478,1.424-1.15,1.456
								c-0.673,0.034-1.251-0.564-1.289-1.334C80.415,406.497,80.93,405.844,81.604,405.81z"/>
						</g>
					</g>
					<g>
						<path style="fill:#5ABA47;" d="M290.733,381.084c3.22,2.898,3.571,8.249,2.874,12.248c-0.024,0.137-0.216,0.091-0.207-0.041
							c0.25-3.762-0.134-9.023-3.131-11.679C289.931,381.313,290.396,380.78,290.733,381.084z"/>
						<g>
							<path style="fill:#FFFFFF;" d="M291.796,376.415c-0.221,0.278-0.419,0.565-0.6,0.867c-0.099-0.1-0.191-0.19-0.271-0.27
								c-0.736-0.717-1.958-1.771-3.079-1.301c-1.542,0.645-1.007,2.432-0.246,3.491c0.124,0.173,0.253,0.333,0.387,0.479
								c-0.23-0.039-0.463-0.074-0.697-0.102c-1.047-0.118-2.546-0.318-3.109,0.822c-0.721,1.461,1.098,2.192,2.228,2.272
								c0.986,0.071,1.857-0.077,2.673-0.412c-0.194,0.616-0.356,1.235-0.495,1.815c-0.298,1.234-0.643,3.296,0.943,3.816
								c1.656,0.545,3.078-0.896,2.846-2.514c-0.132-0.912-0.433-1.762-0.765-2.619c-0.024-0.067-0.057-0.137-0.088-0.208
								c0.587,0.296,1.207,0.537,1.801,0.712c1.003,0.294,2.615,0.799,3.55,0.07c1.088-0.848,0.263-2.182-0.751-2.592
								c-1.105-0.444-2.302-0.676-3.495-0.789c0.857-0.544,1.711-1.129,2.281-1.946c0.571-0.819,0.947-2.169-0.139-2.745
								C293.74,374.721,292.408,375.643,291.796,376.415z"/>
							<path style="fill:#FFB452;" d="M290.672,379.264c-0.656-0.162-1.338,0.314-1.523,1.063c-0.186,0.75,0.196,1.49,0.85,1.65
								c0.654,0.162,1.336-0.313,1.522-1.063C291.705,380.166,291.325,379.426,290.672,379.264z"/>
						</g>
					</g>
					<g>
						<path style="fill:#5ABA47;" d="M272.898,408.286c-2.518,7.082-3.143,14.785-2.592,22.294c-0.784-4.2-2.543-8.343-4-12.226
							c-2.242-5.972-4.574-12.08-8.616-17.097c-0.228-0.283-0.684,0.083-0.497,0.384c5.068,8.152,8.897,16.88,11.548,26.044
							c-0.858-2.349-1.982-4.585-3.578-6.622c-0.122-0.157-0.397,0.055-0.275,0.213c1.651,2.149,2.815,4.575,3.735,7.105
							c-4.417-9.025-15.139-11.51-23.881-15.209c-0.205-0.087-0.386,0.211-0.178,0.303c4.562,2.031,9.432,3.214,13.829,5.626
							c4.854,2.662,8.602,6.918,11.067,11.806c0.418,1.388,0.791,2.788,1.142,4.181c0.021,0.089,0.154,0.051,0.135-0.037
							c-0.006-0.028-0.013-0.057-0.019-0.085c0.002-0.146-0.003-0.291-0.005-0.437c0.02,0.022,0.056,0.024,0.056-0.014
							c0.05-9.024-0.271-17.384,2.265-26.192C273.059,408.235,272.928,408.201,272.898,408.286z"/>
						<g>
							<path style="fill:#FFFFFF;" d="M275.408,414.213c1.404-0.035,1.708-1.607,1.54-2.736c-0.165-1.127-0.74-2.159-1.338-3.153
								c1.276,0.493,2.619,0.867,3.976,0.974c1.246,0.1,2.77-0.843,2.089-2.264c-0.584-1.224-2.49-1.528-3.667-1.738
								c-0.694-0.124-1.452-0.196-2.202-0.192c0.066-0.055,0.135-0.11,0.196-0.168c0.774-0.706,1.517-1.422,2.115-2.286
								c1.064-1.535,0.344-3.734-1.627-4.022c-1.888-0.274-2.585,2.008-2.911,3.422c-0.152,0.663-0.303,1.382-0.418,2.108
								c-0.663-0.757-1.479-1.355-2.523-1.784c-1.196-0.494-3.429-0.672-3.438,1.189c-0.005,1.453,1.63,2.012,2.762,2.425
								c0.253,0.093,0.508,0.175,0.765,0.252c-0.212,0.083-0.425,0.18-0.641,0.294c-1.319,0.695-2.775,2.248-1.528,3.696
								c0.906,1.05,2.693,0.595,3.813,0.239c0.123-0.041,0.265-0.086,0.415-0.139c0.031,0.398,0.087,0.797,0.17,1.191
								C273.188,412.622,274.082,414.244,275.408,414.213z"/>
							<path style="fill:#FFB452;" d="M273.257,408.033c-0.75-0.168-1.206-1.001-1.013-1.862c0.191-0.859,0.958-1.422,1.709-1.253
								c0.752,0.167,1.207,1.001,1.014,1.86C274.776,407.64,274.01,408.201,273.257,408.033z"/>
						</g>
						<g>
							<path style="fill:#FFFFFF;" d="M243.458,407.326c-1.215,0.185-1.309,1.581-1.04,2.544c0.266,0.961,0.877,1.795,1.505,2.594
								c-1.164-0.29-2.369-0.469-3.559-0.416c-1.093,0.051-2.314,1.034-1.569,2.194c0.641,0.998,2.329,1.058,3.373,1.112
								c0.617,0.032,1.282,0.011,1.934-0.073c-0.054,0.056-0.106,0.111-0.153,0.167c-0.596,0.698-1.163,1.4-1.589,2.216
								c-0.756,1.449,0.107,3.28,1.85,3.316c1.669,0.034,2.028-2.024,2.157-3.287c0.061-0.593,0.113-1.231,0.134-1.877
								c0.659,0.586,1.432,1.016,2.385,1.276c1.093,0.299,3.051,0.212,2.855-1.406c-0.152-1.262-1.634-1.57-2.66-1.806
								c-0.229-0.053-0.461-0.097-0.691-0.136c0.175-0.095,0.349-0.202,0.524-0.325c1.069-0.746,2.166-2.254,0.926-3.375
								c-0.9-0.815-2.403-0.226-3.336,0.206c-0.103,0.048-0.221,0.103-0.346,0.165c-0.071-0.344-0.162-0.682-0.278-1.017
								C245.56,408.467,244.608,407.155,243.458,407.326z"/>
							<path style="fill:#FFB452;" d="M245.997,412.459c0.671,0.065,1.156,0.741,1.083,1.508c-0.074,0.769-0.679,1.34-1.349,1.274
								c-0.671-0.063-1.157-0.738-1.082-1.506C244.722,412.967,245.326,412.396,245.997,412.459z"/>
						</g>
						<g>
							<path style="fill:#FFFFFF;" d="M260.463,399.844c-0.281,0.026-0.559,0.073-0.831,0.136c0.003-0.112,0.003-0.216,0.005-0.307
								c0.002-0.822-0.069-2.112-0.962-2.497c-1.229-0.529-1.962,0.771-2.15,1.798c-0.029,0.169-0.051,0.331-0.061,0.491
								c-0.104-0.155-0.214-0.31-0.328-0.459c-0.515-0.669-1.232-1.645-2.201-1.335c-1.242,0.397-0.653,1.852-0.072,2.547
								c0.507,0.607,1.078,1.026,1.723,1.311c-0.461,0.229-0.909,0.482-1.32,0.722c-0.877,0.516-2.255,1.462-1.675,2.667
								c0.606,1.256,2.228,1.274,3.03,0.24c0.451-0.582,0.773-1.229,1.083-1.895c0.025-0.053,0.049-0.109,0.071-0.167
								c0.154,0.502,0.362,0.994,0.591,1.433c0.389,0.742,0.993,1.951,1.934,2.085c1.092,0.155,1.402-1.061,1.073-1.873
								c-0.356-0.884-0.889-1.702-1.487-2.452c0.79,0.191,1.602,0.358,2.39,0.231c0.79-0.125,1.776-0.659,1.505-1.604
								C262.521,400.023,261.249,399.767,260.463,399.844z"/>
							<path style="fill:#FFB452;" d="M258.197,400.777c-0.271-0.466-0.924-0.594-1.457-0.285c-0.535,0.31-0.75,0.94-0.479,1.406
								c0.27,0.468,0.921,0.596,1.457,0.286C258.253,401.876,258.468,401.245,258.197,400.777z"/>
						</g>
						<g>
							<path style="fill:#FFFFFF;" d="M265.854,417.045c-0.194,0.206-0.37,0.424-0.534,0.651c-0.072-0.086-0.14-0.164-0.199-0.233
								c-0.542-0.618-1.449-1.538-2.373-1.236c-1.272,0.416-0.961,1.875-0.423,2.77c0.09,0.146,0.181,0.282,0.278,0.409
								c-0.182-0.047-0.364-0.091-0.55-0.127c-0.827-0.162-2.011-0.42-2.533,0.454c-0.67,1.119,0.734,1.82,1.63,1.958
								c0.782,0.12,1.487,0.058,2.159-0.155c-0.195,0.477-0.364,0.963-0.514,1.415c-0.316,0.966-0.725,2.587,0.508,3.108
								c1.285,0.541,2.514-0.517,2.432-1.823c-0.046-0.735-0.232-1.434-0.439-2.138c-0.016-0.057-0.036-0.114-0.058-0.172
								c0.447,0.275,0.93,0.505,1.391,0.683c0.782,0.301,2.035,0.808,2.83,0.285c0.921-0.605,0.35-1.722-0.435-2.113
								c-0.852-0.428-1.792-0.689-2.736-0.856c0.718-0.379,1.438-0.791,1.944-1.406c0.51-0.616,0.897-1.67,0.068-2.199
								C267.517,415.818,266.392,416.468,265.854,417.045z"/>
							<path style="fill:#FFB452;" d="M264.771,419.243c-0.512-0.17-1.086,0.165-1.282,0.75c-0.196,0.586,0.059,1.201,0.571,1.371
								c0.512,0.173,1.084-0.162,1.282-0.748C265.539,420.031,265.283,419.416,264.771,419.243z"/>
						</g>
					</g>
				</g>
			</g>
		</g>
		<g>
			<g>
				<g>
					<g>
						<path style="fill:#F69E5F;" d="M162.723,392.025c0,0,6.089,9.59,5.479,10.123c-0.609,0.532-5.785,0.837-7.079,0.532
							c-1.294-0.305-1.979,1.751,0,2.436c1.979,0.685,6.013-1.295,6.622-1.143c0.609,0.152-3.882,1.75-2.74,2.512
							c1.142,0.762,4.262,1.065,4.567,0c0.305-1.065-0.229-2.358,0.913-2.282c1.142,0.075,12.863,2.663,15.451,1.521
							c2.587-1.142,2.892-3.502-2.208-2.893c-5.099,0.609-13.472-0.151-13.7-0.761c-0.228-0.609-1.827-12.711-1.827-12.711
							L162.723,392.025z"/>
						<g>
							<path style="fill:#D57952;" d="M169.225,396.886c-0.03-0.213-0.06-0.428-0.09-0.643c-1.166,0.034-2.33,0.274-3.451,0.631
								c0.075,0.128,0.149,0.256,0.223,0.383C167.014,397.07,168.11,396.945,169.225,396.886z"/>
							<path style="fill:#D57952;" d="M166.819,398.861c0.863-0.183,1.754-0.279,2.638-0.338c-0.02-0.142-0.041-0.283-0.061-0.429
								c-0.951,0.043-1.865,0.166-2.755,0.444C166.7,398.648,166.76,398.756,166.819,398.861z"/>
							<path style="fill:#D57952;" d="M167.816,400.785c0.635-0.171,1.272-0.282,1.922-0.35c-0.031-0.203-0.063-0.418-0.098-0.648
								c-0.698,0.104-1.383,0.286-2.049,0.533C167.674,400.484,167.748,400.639,167.816,400.785z"/>
							<path style="fill:#D57952;" d="M168.215,401.814c0.585-0.035,1.165-0.041,1.747-0.03c-0.021-0.107-0.044-0.239-0.071-0.396
								c-0.582,0.041-1.162,0.111-1.738,0.208C168.179,401.676,168.2,401.748,168.215,401.814z"/>
							<path style="fill:#D57952;" d="M170.773,404.239c0.184,0.027,0.432,0.069,0.732,0.122c0.011-0.189,0.032-0.381,0.087-0.578
								c0.117-0.42,0.259-0.811,0.477-1.173c-0.15-0.022-0.299-0.042-0.436-0.064C171.205,403.016,170.859,403.624,170.773,404.239z
								"/>
							<path style="fill:#D57952;" d="M172.662,403.858c-0.116,0.191-0.214,0.42-0.283,0.66c0.326,0.059,0.679,0.123,1.061,0.192
								c0.106-0.671,0.345-1.303,0.735-1.869c-0.242-0.021-0.47-0.043-0.698-0.065C173.17,403.11,172.893,403.475,172.662,403.858z"
								/>
							<path style="fill:#D57952;" d="M174.701,404.935c0.341,0.059,0.692,0.12,1.052,0.181c0.313-0.758,0.736-1.448,1.234-2.104
								c-0.375-0.015-0.745-0.031-1.108-0.051C175.37,403.562,174.942,404.217,174.701,404.935z"/>
							<path style="fill:#D57952;" d="M178.076,403.824c-0.372,0.462-0.739,0.966-0.975,1.51c0.433,0.067,0.871,0.133,1.309,0.196
								c0.343-0.867,0.742-1.702,1.249-2.476c-0.309,0.002-0.619,0.001-0.929-0.003
								C178.506,403.303,178.289,403.561,178.076,403.824z"/>
							<path style="fill:#D57952;" d="M181.471,403.009c-0.456,0.552-0.857,1.157-1.246,1.75c-0.186,0.285-0.375,0.607-0.535,0.944
								c0.421,0.053,0.836,0.101,1.243,0.142c0.339-1.032,0.887-2.066,1.532-2.895C182.141,402.973,181.81,402.993,181.471,403.009z
								"/>
							<path style="fill:#D57952;" d="M184.004,402.809c-0.211,0.287-0.413,0.579-0.622,0.855c-0.526,0.693-0.828,1.479-0.963,2.305
								c0.396,0.025,0.773,0.04,1.129,0.045c0.15-0.496,0.335-0.982,0.554-1.477c0.245-0.551,0.552-1.225,0.944-1.793
								C184.729,402.749,184.384,402.771,184.004,402.809z"/>
							<path style="fill:#D57952;" d="M166.324,404.92c-0.311,0.174-0.62,0.356-0.879,0.541c1.364-0.24,2.941-0.085,4.221,0.443
								c0.017-0.225,0.023-0.445,0.03-0.651C168.685,404.822,167.458,404.741,166.324,404.92z"/>
							<path style="fill:#D57952;" d="M167.654,404.173c-0.116,0.082-0.289,0.182-0.503,0.298c0.47-0.007,0.939-0.009,1.408,0.034
								c0.427,0.039,0.794,0.196,1.168,0.351c0.035-0.255,0.122-0.45,0.306-0.558C169.319,403.994,168.451,404.055,167.654,404.173z
								"/>
							<path style="fill:#D57952;" d="M165.714,402.662c0.098,0.157,0.179,0.326,0.237,0.496c0.13,0.38,0.199,0.788,0.29,1.184
								c0.119-0.039,0.232-0.074,0.341-0.109c0.074-0.503,0.022-0.973-0.164-1.483c-0.018-0.05-0.039-0.103-0.063-0.157
								C166.15,402.618,165.936,402.641,165.714,402.662z"/>
							<path style="fill:#D57952;" d="M164.051,402.775c0.045,0.116,0.097,0.23,0.134,0.352c0.169,0.56,0.328,1.132,0.453,1.706
								c0.169-0.047,0.335-0.095,0.499-0.145c0.161-0.684,0.161-1.236-0.08-1.97C164.723,402.742,164.385,402.761,164.051,402.775z"
								/>
							<path style="fill:#D57952;" d="M162.343,402.793c0.102,0.332,0.196,0.666,0.243,1.021c0.063,0.464,0.119,0.936,0.142,1.409
								c0.196-0.02,0.395-0.047,0.598-0.084c0.159-0.753,0.18-1.577,0.015-2.342C162.986,402.804,162.65,402.802,162.343,402.793z"
								/>
						</g>
						<path style="fill:#D57952;" d="M168.877,399.73c-1.031-2.978-2.326-5.96-3.471-9.009l-2.683,1.304
							c0,0,6.089,9.59,5.479,10.123c-0.609,0.532-5.785,0.837-7.079,0.532c-1.294-0.305-1.979,1.751,0,2.436
							c1.979,0.685,6.013-1.295,6.622-1.143c0.609,0.152-3.882,1.75-2.74,2.512c0.544,0.362,1.537,0.619,2.46,0.676
							C168.709,404.775,169.616,402.224,168.877,399.73z"/>
					</g>
					<g>
						<path style="fill:#E6D2DD;" d="M159.033,390.893c0,0,1.598,5.403,3.349,5.175c1.751-0.228,4.11-0.997,5.785-0.834
							c1.674,0.162,4.338,0.148,3.958-5.56L159.033,390.893z"/>
						<path style="opacity:0.4;fill:#574B73;" d="M172.154,390.497c-4.153,0.528-8.405,1.353-12.419,2.345
							c0.184,0.444,0.397,0.911,0.633,1.354c3.795-0.039,7.769-0.711,11.583-1.451C172.093,392.143,172.168,391.405,172.154,390.497
							z"/>
					</g>
				</g>
				<g>
					<g>
						<path style="fill:#F69E5F;" d="M133.349,396.593c0,0,1.598,6.47,0.761,7.459c-0.837,0.989-8.144-0.229-9.286,1.598
							c-1.142,1.826,0.152,2.74,2.093,2.283c1.941-0.457,8.182-2.208,9.02-1.751c0.837,0.457-2.131,3.578,1.903,4.035
							c4.034,0.456,8.003-2.027,3.273-3.806c-0.609-0.229,1.446-0.608,5.1,0.152c3.653,0.761,6.697,2.054,7.916,0.456
							c1.218-1.599-1.446-3.197-6.698-2.74c-5.252,0.457-8.981-0.989-9.514-1.978c-0.533-0.989-1.066-5.708-1.066-5.708H133.349z"/>
						<g>
							<path style="fill:#D57952;" d="M137.178,399.042c-0.027-0.176-0.052-0.348-0.077-0.517c-1.097,0.056-2.202,0.222-3.225,0.513
								c0.016,0.081,0.032,0.16,0.047,0.244C134.987,399.075,136.081,399.035,137.178,399.042z"/>
							<path style="fill:#D57952;" d="M137.291,399.741c-1.083,0.106-2.167,0.318-3.185,0.6c0.039,0.244,0.074,0.488,0.105,0.728
								c1.054-0.253,2.137-0.415,3.226-0.503C137.387,400.301,137.337,400.022,137.291,399.741z"/>
							<path style="fill:#D57952;" d="M134.345,402.5c1.106-0.25,2.217-0.461,3.355-0.582c0.021-0.003,0.042-0.002,0.064-0.004
								c-0.069-0.212-0.137-0.471-0.203-0.763c-1.115,0.145-2.222,0.375-3.267,0.631C134.318,402.032,134.335,402.273,134.345,402.5
								z"/>
							<path style="fill:#D57952;" d="M138.126,402.561c-1.289,0.103-2.552,0.305-3.794,0.693c-0.011,0.138-0.029,0.26-0.053,0.37
								c1.57-0.31,3.194-0.384,4.807-0.438C138.658,402.979,138.333,402.766,138.126,402.561z"/>
							<path style="fill:#D57952;" d="M132.209,404.475c0.743,0.371,1.018,1.111,1.279,1.891c0.237-0.046,0.464-0.086,0.679-0.121
								c-0.219-0.719-0.593-1.373-1.135-1.834C132.788,404.44,132.506,404.459,132.209,404.475z"/>
							<path style="fill:#D57952;" d="M129.356,404.543c-0.095,0.003-0.189,0.006-0.284,0.01c0.391,0.44,0.782,0.88,1.124,1.361
								c0.246,0.345,0.387,0.706,0.486,1.076c0.204-0.05,0.406-0.099,0.61-0.147c-0.115-0.314-0.272-0.622-0.509-0.932
								C130.384,405.389,129.87,404.964,129.356,404.543z"/>
							<path style="fill:#D57952;" d="M127.998,404.607c-0.29,0.021-0.568,0.05-0.837,0.085c0.489,0.357,0.966,0.73,1.388,1.175
								c0.429,0.451,0.633,0.948,0.748,1.469c0.297-0.076,0.604-0.152,0.918-0.23c-0.157-0.428-0.361-0.825-0.63-1.146
								C129.121,405.405,128.577,404.983,127.998,404.607z"/>
							<path style="fill:#D57952;" d="M142.251,406.946c-2.235-0.231-4.861,0.487-6.578,1.743c0.014,0.21,0.07,0.411,0.18,0.599
								c2.194-1.208,4.971-1.55,7.408-1.073C143.25,407.802,142.946,407.365,142.251,406.946z"/>
							<path style="fill:#D57952;" d="M136.002,407.003c-0.079,0.281-0.188,0.605-0.262,0.94c0.892-0.386,1.79-0.692,2.759-0.943
								c1.075-0.277,2.145-0.247,3.218-0.333c-0.185-0.087-0.383-0.173-0.605-0.256c-0.241-0.092-0.059-0.204,0.47-0.263
								c-0.889-0.254-1.906-0.119-2.797,0.048C137.883,406.365,136.897,406.611,136.002,407.003z"/>
							<path style="fill:#D57952;" d="M142.49,404.15c-0.283-0.044-0.558-0.09-0.819-0.143c0.193,0.268,0.553,0.485,0.765,0.677
								c0.414,0.374,0.736,0.916,0.97,1.471c0.192,0.015,0.396,0.033,0.609,0.058c-0.168-0.521-0.441-0.979-0.819-1.435
								C142.993,404.531,142.744,404.338,142.49,404.15z"/>
							<path style="fill:#D57952;" d="M143.965,404.312c0.202,0.284,0.4,0.571,0.577,0.877c0.22,0.381,0.387,0.771,0.539,1.167
								c0.265,0.043,0.541,0.093,0.828,0.148c-0.245-0.799-0.758-1.521-1.36-2.158C144.351,404.338,144.157,404.325,143.965,404.312
								z"/>
							<path style="fill:#D57952;" d="M146.034,404.354c0.254,0.323,0.507,0.648,0.733,0.992c0.303,0.463,0.499,0.966,0.641,1.486
								c0.21,0.05,0.417,0.101,0.622,0.151c-0.286-0.993-0.916-1.83-1.64-2.64C146.269,404.351,146.152,404.351,146.034,404.354z"/>
							<path style="fill:#D57952;" d="M148.659,404.212c0.458,1.013,0.708,2.048,0.845,3.135c0.254,0.061,0.5,0.116,0.74,0.168
								c-0.175-1.143-0.794-2.277-1.415-3.306C148.772,404.21,148.717,404.211,148.659,404.212z"/>
							<path style="fill:#D57952;" d="M152.701,407.751c-0.023-0.469-0.097-0.935-0.2-1.369c-0.182-0.765-0.685-1.417-1.238-2.033
								c-0.196-0.03-0.399-0.056-0.612-0.077c0.397,0.607,0.783,1.22,1.023,1.917c0.188,0.548,0.227,1.064,0.21,1.577
								C152.175,407.784,152.448,407.779,152.701,407.751z"/>
							<path style="fill:#D57952;" d="M130.919,404.514c-0.098,0.002-0.196,0.003-0.295,0.004c0.699,0.574,1.269,1.292,1.711,2.086
								c0.167-0.036,0.33-0.071,0.493-0.105C132.35,405.717,131.713,405.041,130.919,404.514z"/>
							<path style="fill:#D57952;" d="M125.382,405.177c0.451,0.451,0.836,0.959,1.154,1.552c0.206,0.384,0.332,0.786,0.441,1.189
								c0.195-0.047,0.432-0.105,0.696-0.172c-0.371-1.036-1.019-2.007-1.808-2.776
								C125.687,405.029,125.526,405.099,125.382,405.177z"/>
						</g>
						<path style="fill:#D57952;" d="M136.794,403.108c-0.33-2.23-1.083-4.366-1.804-6.516h-1.641c0,0,1.598,6.47,0.761,7.459
							c-0.837,0.989-8.144-0.229-9.286,1.598c-1.142,1.826,0.152,2.74,2.093,2.283c1.941-0.457,8.182-2.208,9.02-1.751
							c0.771,0.422-1.677,3.102,1.093,3.877C137.192,407.699,137.232,405.299,136.794,403.108z"/>
					</g>
					<g>
						<path style="fill:#E6D2DD;" d="M126.95,388.525c0,0,3.273,10.502,5.48,10.198c2.208-0.304,3.578-0.912,3.578-0.912
							s2.207,1.293,4.262,0.075c2.055-1.218,3.197-10.275,3.197-10.275L126.95,388.525z"/>
						<g>
							<path style="opacity:0.4;fill:#574B73;" d="M136.274,390.457c-3.105-0.587-6.212-1.232-9.313-1.897
								c0.072,0.228,0.502,1.578,1.124,3.226c1.822,0.692,3.698,1.282,5.686,1.762c2.421,0.584,5.233,1.351,8.032,1.767
								c0.429-1.224,0.78-2.688,1.046-4.011C140.642,391.02,138.398,390.859,136.274,390.457z"/>
						</g>
					</g>
				</g>
				<g>
					<path style="fill:#FFFDE8;" d="M200.63,288.884c0,0,20.932,7.228,48.499-0.907c12.862-3.795-1.317,13.276-11.176,15.494
						c0,0,3.347,2.262,9.911,0c8.048-2.773-4.217,31.95-47.233,36.799V288.884z"/>
					<path style="fill:#B8988D;" d="M247.863,303.471c-6.563,2.262-9.911,0-9.911,0c9.859-2.218,24.039-19.289,11.176-15.494
						c-6.623,1.954-12.855,3.016-18.514,3.51c-0.709,14.33-2.444,28.031-5.768,41.87
						C248.088,321.847,254.125,301.313,247.863,303.471z"/>
					<path style="fill:#E4D9D7;" d="M200.63,340.27c43.016-4.849,55.281-39.572,47.233-36.799c-6.563,2.262-9.911,0-9.911,0
						c7.624-1.716,17.821-12.306,16.109-15.268c-8.342,7.644-18.393,12.983-29.214,16.892c-0.938,0.339-1.881-1.624-7.295-13.395
						c-6.932,2.322-9.675,18.479-16.922,19.935V340.27z"/>
					<path style="fill:#9C7F95;" d="M247.863,303.471c-6.563,2.262-9.911,0-9.911,0c7.624-1.716,17.821-12.306,16.109-15.268
						c-7.058,6.466-15.342,11.277-24.278,14.975c-0.953,10.18-2.527,20.145-4.936,30.179
						C248.088,321.847,254.125,301.313,247.863,303.471z"/>
				</g>
				<g>
					<path style="fill:#BBAECA;" d="M50.204,346.757c0.579-0.385,0.386-32.926-5.977-31.502c-6.363,1.424,1.542,31.502,1.542,31.502
						H50.204z"/>
					<path style="fill:#E6D2DD;" d="M205.115,255.802c0,0,19.009,42.164,17.795,75.227c-1.214,33.064-29.554,73.711-95.313,59.15
						c-65.759-14.56-84.263-43.073-84.263-43.073s-18.2-15.157-12.133-22.594c6.066-7.438,15.47,20.167,15.47,20.167
						s40.041-8.797,83.115-91.001L205.115,255.802z"/>
					<path style="opacity:0.4;fill:#574B73;" d="M183.071,294.039c-0.942-0.225-2.08,0.659-1.695,1.696
						c1.853,4.996,0.583,8.711-2.881,12.676c-3.042,3.48-6.626,6.43-9.526,10.038c-0.566,0.704-1.061,1.422-1.52,2.151
						c-1.247,0.041-2.49,0.587-3.287,1.796c-8.791,13.328-20.418,25.602-37.359,26.014c-16.964,0.414-28.66-10.869-39.347-22.554
						l-0.963,1.776c7.061,16.762,19.828,29.882,38.582,29.882c15.011,0,36.858-17.213,39.341-21.394
						c0.533,2.596,1.258,9.513,2.215,12c1.608,4.179,4.532,5.517,4.788,0.83c0.35-6.383-1.191-19.163-1.191-19.163
						c6.926-6.338,17.155-22.804,17.509-28.007C188.018,297.675,187.747,295.154,183.071,294.039z"/>
					<path style="fill:#FFFDE8;" d="M205.115,255.802l-29.038-0.818c13.695,45.94,36.031,103.983,9.314,131.861
						c-0.091,0.094-0.186,0.182-0.276,0.274c25.302-11.028,37.024-35.086,37.795-56.09
						C224.124,297.966,205.115,255.802,205.115,255.802z"/>
					<g>
						<path style="fill:#E6D2DD;" d="M198.327,295.433c0.511-1.724-0.013-3.688-0.834-5.233c-0.229-0.433-0.922-0.134-0.784,0.33
							c0.483,1.614,0.078,3.306,0.554,4.903C197.42,295.959,198.171,295.96,198.327,295.433z"/>
						<path style="fill:#E6D2DD;" d="M201.324,290.218c0.145,0.581,1.011,0.44,1.022-0.139c0.041-1.938-1.014-3.42-2.211-4.86
							c-0.335-0.402-1.007,0.124-0.722,0.557C200.33,287.163,200.922,288.607,201.324,290.218z"/>
						<path style="fill:#E6D2DD;" d="M201.661,296.339c-0.227-0.127-0.499,0.035-0.507,0.291c-0.014,0.486,0.232,0.97,0.278,1.462
							c0.051,0.538,0.045,1.016,0.169,1.549c0.128,0.549,1.003,0.564,1.123,0c0.146-0.695,0.061-1.229-0.171-1.895
							C202.379,297.245,202.139,296.608,201.661,296.339z"/>
						<path style="fill:#E6D2DD;" d="M198.607,309.543c0.208,1.249-0.03,2.486,0.218,3.728c0.129,0.646,1.171,0.646,1.299,0
							c0.268-1.349,0.02-2.731-0.453-4.021C199.424,308.577,198.491,308.844,198.607,309.543z"/>
						<path style="fill:#E6D2DD;" d="M189.151,289.69c0.297,1.55,0.06,3.104,0.604,4.601c0.245,0.675,1.372,0.625,1.323-0.179
							c-0.099-1.651-0.477-3.229-1.144-4.753C189.728,288.887,189.065,289.243,189.151,289.69z"/>
						<path style="fill:#E6D2DD;" d="M186.592,315.433c0.749-1.726,0.359-3.713-0.142-5.479c-0.128-0.452-0.887-0.38-0.842,0.114
							c0.154,1.718-0.292,3.35-0.214,5.039C185.42,315.688,186.319,316.063,186.592,315.433z"/>
						<path style="fill:#E6D2DD;" d="M194.803,303.229c-0.169-0.804-0.48-1.872-1.252-2.275c-0.143-0.074-0.313-0.01-0.36,0.146
							c-0.202,0.663,0.047,1.332,0.088,2.009c0.052,0.86-0.105,1.733-0.022,2.591c0.06,0.618,0.914,0.983,1.256,0.341
							C194.979,305.166,195.003,304.18,194.803,303.229z"/>
						<path style="fill:#E6D2DD;" d="M195.244,319.979c0.037,0.892,0.041,1.781-0.085,2.667c-0.124,0.867-0.456,1.679-0.197,2.552
							c0.147,0.495,0.753,0.645,1.126,0.297c1.443-1.349,0.428-4.053-0.122-5.613C195.834,319.506,195.226,319.544,195.244,319.979z
							"/>
						<path style="fill:#E6D2DD;" d="M205.355,320.944c0.73,1.354,0.679,2.915,1.406,4.262c0.352,0.649,1.275,0.31,1.313-0.355
							c0.096-1.674-0.753-3.35-1.805-4.611C205.831,319.713,205.053,320.385,205.355,320.944z"/>
						<path style="fill:#E6D2DD;" d="M207.194,307.749c0.448,0.729,0.873,1.468,1.255,2.234c0.374,0.75,0.564,1.571,1.026,2.272
							c0.337,0.511,1.325,0.376,1.255-0.34c-0.172-1.775-1.774-3.37-2.911-4.65C207.517,306.926,206.958,307.367,207.194,307.749z"
							/>
						<path style="fill:#E6D2DD;" d="M212.446,295.914c-0.384-0.606-1.042-1.531-1.787-1.654c-0.266-0.043-0.534,0.16-0.453,0.453
							c0.104,0.369,0.322,0.554,0.553,0.858c0.231,0.306,0.413,0.646,0.58,0.989c0.17,0.349,0.244,0.731,0.376,1.093
							c0.113,0.313,0.307,0.597,0.438,0.904c0.215,0.504,0.864,0.169,0.913-0.248C213.177,297.365,212.952,296.711,212.446,295.914z
							"/>
						<path style="fill:#E6D2DD;" d="M203.528,275.065c0.584,0.627,0.968,1.371,1.465,2.053c0.352,0.482,1.116,0.334,1.142-0.309
							c0.085-2.148-2.318-3.365-3.851-4.344c-0.155-0.099-0.381-0.098-0.536,0c-0.098,0.061-0.181,0.114-0.217,0.23
							c-0.009,0.029-0.018,0.059-0.027,0.087c-0.053,0.171,0.001,0.396,0.136,0.517
							C202.284,273.875,202.939,274.434,203.528,275.065z"/>
						<path style="fill:#E6D2DD;" d="M205.898,297.839c0.385,0.353,0.707,0.729,0.97,1.18c0.135,0.232,0.216,0.475,0.292,0.73
							c0.083,0.277,0.306,0.51,0.441,0.765c0.266,0.502,1.197,0.446,1.287-0.168c0.051-0.343,0.133-0.74,0.038-1.083
							c-0.097-0.354-0.354-0.681-0.576-0.964c-0.464-0.592-1.053-1.059-1.702-1.432C206.048,296.519,205.37,297.355,205.898,297.839
							z"/>
						<path style="fill:#E6D2DD;" d="M206.439,286.384c0.076-1.609-0.993-2.922-2.597-3.116c-0.435-0.053-0.57,0.605-0.217,0.799
							c0.887,0.485,1.327,1.573,1.671,2.473C205.528,287.143,206.408,287.065,206.439,286.384z"/>
						<path style="fill:#E6D2DD;" d="M195.308,284.704c-0.001-0.714-0.069-1.507-0.436-2.134c-0.377-0.646-0.963-1.157-1.595-1.543
							c-0.379-0.232-0.695,0.271-0.445,0.577c0.679,0.834,1.026,2.035,1.067,3.1C193.934,285.608,195.309,285.615,195.308,284.704z"
							/>
						<path style="fill:#E6D2DD;" d="M187.41,330.322c-0.534,0.352-0.522,1.17-0.785,1.726c-0.349,0.737-0.616,1.515-0.743,2.316
							c-0.146,0.935,1.019,1.525,1.568,0.661c0.592-0.933,0.918-1.933,0.859-3.047C188.294,331.688,188.122,329.854,187.41,330.322z
							"/>
						<path style="fill:#E6D2DD;" d="M198.627,334.056c-0.354,0.631-0.163,1.456-0.284,2.164c-0.134,0.781-0.366,1.615-0.615,2.368
							c-0.281,0.849,0.954,1.309,1.399,0.59c0.556-0.896,0.778-1.694,0.781-2.746c0.002-0.757-0.025-1.954-0.657-2.457
							C199.058,333.82,198.763,333.813,198.627,334.056z"/>
						<path style="fill:#E6D2DD;" d="M183.807,323.596c-0.224,0.108-0.25,0.257-0.337,0.488c-0.235,0.619-0.489,1.219-0.785,1.815
							c-0.526,1.06-1.169,2.024-1.649,3.114c-0.38,0.862,0.718,1.528,1.269,0.742c0.911-1.299,1.701-2.637,2.046-4.211
							C184.394,325.343,184.495,323.259,183.807,323.596z"/>
						<path style="fill:#E6D2DD;" d="M179.211,345.556c-0.247,0.971-0.929,1.881-1.555,2.648c-0.568,0.695-1.242,1.27-1.477,2.175
							c-0.124,0.475,0.313,0.92,0.791,0.791c1.168-0.314,1.863-1.385,2.475-2.35c0.636-1.004,0.839-2.096,0.653-3.265
							C180.023,345.095,179.316,345.14,179.211,345.556z"/>
					</g>
				</g>
				<g>
					<path style="fill:#8C7386;" d="M175.892,288.865c16.081,0.832,28.415-26.693,29.223-33.063
						c0.808-6.37-10.718-38.221-11.629-46.714c-0.91-8.493,4.55-56.421-21.537-50.051c-26.087,6.37-41.253,80.081-49.444,103.134
						C122.505,262.171,134.418,286.72,175.892,288.865z"/>
					<path style="fill:#B8988D;" d="M193.486,209.087c-0.84-7.841,3.747-49.286-16.067-50.598
						c3.847,11.938,5.67,23.556,3.325,36.688c-3.485,16.263-7.551,31.364-6.389,48.208c0.915,15.568,3.634,30.416,5.633,45.075
						c14.037-3.396,24.388-26.842,25.126-32.659C205.922,249.432,194.396,217.581,193.486,209.087z"/>
					<path style="fill:#5E798C;" d="M181.906,245.128c-18.525,0-34.333-4.277-50.914-11.235c-3.418,11.637-6.22,21.899-8.487,28.278
						c0,0,11.913,24.549,53.387,26.694c16.081,0.832,28.415-26.693,29.223-33.063c0.247-1.945-0.66-6.271-2.06-11.578
						C196.383,245.267,189.356,245.128,181.906,245.128z"/>
					<path style="fill:#8CAD9A;" d="M203.055,244.224c-6.672,1.043-13.699,0.904-21.149,0.904c-2.532,0-5.009-0.088-7.449-0.243
						c0.996,15.024,2.582,22.561,10.611,41.436c11.395-6.843,19.401-25.43,20.046-30.519
						C205.361,253.857,204.455,249.53,203.055,244.224z"/>
					<g>
						<path style="fill:#5E798C;" d="M188.569,249.557c-0.018,1.46,0.054,3.026,0.387,4.454c0.094,0.401,0.746,0.317,0.722-0.098
							c-0.083-1.46-0.45-2.886-0.497-4.356C189.169,249.163,188.574,249.161,188.569,249.557z"/>
						<path style="fill:#5E798C;" d="M194.332,250.374c0.236,0.202,0.421,0.447,0.582,0.713c0.251,0.416,0.428,1.001,0.5,1.48
							c0.12,0.799,1.266,0.525,1.323-0.18c0.069-0.845-0.256-1.473-0.857-2.047c-0.408-0.389-1.255-1.018-1.85-0.832
							c-0.178,0.055-0.245,0.242-0.166,0.404C193.972,250.13,194.15,250.22,194.332,250.374z"/>
						<path style="fill:#5E798C;" d="M196.04,257.857c-0.165-0.154-0.487-0.059-0.471,0.194c0.043,0.65,0.327,1.283,0.438,1.932
							c0.134,0.78,0.129,1.543,0.296,2.321c0.087,0.405,0.747,0.415,0.827,0c0.16-0.832,0.078-1.493-0.124-2.316
							C196.834,259.284,196.583,258.362,196.04,257.857z"/>
						<path style="fill:#5E798C;" d="M202.09,251.27c-0.333-0.809-0.932-1.907-1.815-2.196c-0.253-0.084-0.401,0.203-0.312,0.404
							c0.372,0.834,0.867,1.46,1.067,2.392c0.197,0.915,0.229,1.767,0.175,2.696c-0.036,0.627,0.826,0.652,1.023,0.139
							C202.641,253.625,202.523,252.321,202.09,251.27z"/>
						<path style="fill:#5E798C;" d="M194.855,269.595c0.023,0.832,0.24,1.59,0.108,2.434c-0.122,0.781-0.544,1.596-0.9,2.297
							c-0.271,0.533,0.436,1.164,0.866,0.668c1.219-1.406,1.74-3.951,0.555-5.568C195.298,269.173,194.845,269.23,194.855,269.595z"
							/>
						<path style="fill:#5E798C;" d="M181.324,251.382c-0.002-0.719,0.081-1.4-0.024-2.116c-0.04-0.271-0.48-0.257-0.532,0
							c-0.282,1.395-1.16,3.659,0.115,4.798c0.393,0.35,0.987,0.012,0.871-0.507C181.583,252.798,181.326,252.182,181.324,251.382z"
							/>
					</g>
					<g>
						<path style="fill:#8C7386;" d="M186.576,218.368c-0.172-0.378-0.823-0.286-0.896,0.117c-0.127,0.703-0.002,1.421-0.001,2.135
							c0,0.894-0.218,1.833-0.508,2.676c-0.23,0.668,0.703,0.948,1.063,0.448C187.267,222.319,187.297,219.956,186.576,218.368z"/>
						<path style="fill:#8C7386;" d="M180.786,223.515c-0.525,1.671-1.044,3.389-0.66,5.137c0.124,0.563,0.991,0.55,1.122,0
							c0.379-1.589,0.32-3.233,0.602-4.844C181.97,223.116,181.002,222.826,180.786,223.515z"/>
						<path style="fill:#8C7386;" d="M176.742,217.558c-1.522,2.33-2.948,4.621-3.344,7.42c-0.105,0.742,0.84,1.014,1.122,0.309
							c0.973-2.434,1.906-4.896,2.962-7.296C177.702,217.493,177.051,217.085,176.742,217.558z"/>
						<path style="fill:#8C7386;" d="M179.372,234.173c0.014-0.412-0.635-0.505-0.722-0.098c-0.379,1.773-0.997,3.911-0.096,5.616
							c0.245,0.464,0.975,0.244,0.971-0.263C179.509,237.671,179.313,235.938,179.372,234.173z"/>
						<path style="fill:#8C7386;" d="M186.433,233.276c0.315,1.364,0.521,2.679,0.332,4.081c-0.115,0.847,0.996,1.193,1.299,0.358
							c0.58-1.594,0.013-3.212-0.509-4.749C187.314,232.259,186.263,232.541,186.433,233.276z"/>
						<path style="fill:#8C7386;" d="M196.85,229.667c-0.449-1.115-1.001-2.535-1.973-3.29c-0.238-0.185-0.685-0.028-0.564,0.328
							c0.382,1.119,1.101,2.122,1.533,3.238c0.503,1.297,0.764,2.664,1.192,3.983c0.163,0.502,1.02,0.443,0.962-0.13
							C197.857,232.353,197.39,231.008,196.85,229.667z"/>
						<path style="fill:#8C7386;" d="M189.614,209.521c0.465,1.077,1.034,2.041,1.341,3.19c0.304,1.135,0.316,2.214,0.292,3.372
							c-0.013,0.603,0.851,0.689,1.023,0.138c0.748-2.4-0.378-5.4-2.222-7.035C189.801,208.969,189.493,209.239,189.614,209.521z"/>
					</g>
				</g>
				<g>
					<path style="opacity:0.5;fill:#B20D3C;" d="M161.188,189.172c-1.825-1.065-4.685-1.104-6.152,0.585
						c-1.393,1.602-1.13,3.608,0.114,4.924c0.834,1.432,2.796,2.349,4.25,2.665c2.466,0.536,5.118-0.698,5.223-3.478
						C164.696,191.901,162.73,190.073,161.188,189.172z"/>
					<path style="opacity:0.5;fill:#B20D3C;" d="M192.882,189.858c-0.712-0.938-1.538-1.283-2.69-1.42
						c-1.189-0.141-2.619,0.696-3.452,1.576c-0.512,0.404-0.922,0.919-1.183,1.6c-0.18,0.467-0.224,0.973-0.169,1.468
						c-0.024,0.782,0.219,1.538,0.938,2.097c0.374,0.291,0.763,0.491,1.188,0.563c1.196,0.392,2.453,0.144,3.555-0.497
						c1.041-0.606,1.954-1.85,2.202-3.028C193.433,191.442,193.378,190.513,192.882,189.858z"/>
					<g>
						<path style="fill:#CC155B;" d="M166.853,191.79c0,0-9.374-5.971-7.308-10.086c2.066-4.115,5.218-0.223,5.218-0.223
							s1.387-4.812,4.893-1.827C173.162,182.64,166.853,191.79,166.853,191.79z"/>
						<g>
							<path style="fill:#EA1B6F;" d="M169.322,181.71c-0.208-0.839-0.975-1.519-1.706-1.916c-0.265-0.143-0.581,0.148-0.419,0.419
								c0.372,0.623,0.417,1.231,0.499,1.933c0.085,0.723-0.123,1.371,0.451,1.942c0.18,0.179,0.486,0.231,0.705,0.091
								C169.726,183.621,169.539,182.585,169.322,181.71z"/>
							<path style="fill:#EA1B6F;" d="M167.81,185.615c-0.215,0.409-0.305,0.643-0.112,1.081c0.123,0.279,0.515,0.331,0.754,0.198
								c0.351-0.195,0.416-0.43,0.477-0.807C169.034,185.446,168.157,184.956,167.81,185.615z"/>
						</g>
						<path style="fill:#B20D3C;" d="M162.259,184.816c-0.729-1.243-1.893-2.904-1.918-4.277c-0.276,0.285-0.544,0.663-0.795,1.165
							c-1.833,3.651,5.332,8.758,6.974,9.866c-0.199-0.238-0.402-0.473-0.586-0.722
							C164.457,189.042,163.486,186.862,162.259,184.816z"/>
					</g>
					<g>
						<path style="fill:#CC155B;" d="M184.633,191.283c0,0-6.314-8.697-2.979-11.642c3.335-2.945,4.785,1.667,4.785,1.667
							s2.972-3.811,5.064,0.115C193.595,185.35,184.633,191.283,184.633,191.283z"/>
						<g>
							<path style="fill:#EA1B6F;" d="M190.627,182.212c-0.124-0.461-0.373-0.918-0.736-1.23c-0.269-0.231-0.839-0.113-0.789,0.327
								c0.052,0.452-0.195,0.744-0.294,1.165c-0.043,0.184-0.094,0.354-0.183,0.521c-0.208,0.396-0.116,0.711,0.051,1.094
								c0.105,0.242,0.422,0.385,0.671,0.385c0.042,0.002,0.084,0,0.125-0.004c0.32-0.022,0.703-0.165,0.846-0.486
								C190.565,183.432,190.789,182.818,190.627,182.212z"/>
							<path style="fill:#EA1B6F;" d="M188.23,185.009c-0.357,0.272-0.536,0.582-0.587,1.025c-0.047,0.401,0.357,0.681,0.705,0.705
								c0.304,0.021,0.498-0.11,0.72-0.297c0.311-0.262,0.335-0.612,0.271-0.982C189.262,185.013,188.599,184.729,188.23,185.009z"
								/>
						</g>
						<path style="fill:#B20D3C;" d="M183.312,178.709c-0.49,0.105-1.041,0.389-1.658,0.933c-2.878,2.541,1.425,9.358,2.661,11.183
							c-0.733-2.234-1.106-4.57-1.318-6.907C182.835,182.307,182.569,180.217,183.312,178.709z"/>
					</g>
					<g>
						<path style="fill:#F69E5F;" d="M169.325,189.926c0,0,3.673-4.727,6.524-4.693c2.851,0.034,5.81,4.091,5.81,4.091
							s-4.33,5.537-5.701,5.537C174.588,194.86,169.325,189.926,169.325,189.926z"/>
						<path style="fill:#F69E5F;" d="M169.325,189.926c0,0,5.263,4.934,6.633,4.934c1.371,0,5.701-5.537,5.701-5.537
							s-3.508,2.357-4.769,2.466C175.629,191.898,169.325,189.926,169.325,189.926z"/>
						<path style="fill:#FFB452;" d="M181.659,189.324c0,0-2.959-4.057-5.81-4.091c-0.132-0.001-0.267,0.017-0.401,0.035
							c0,0,1.462,3.614,1.404,6.465c-0.471,0.942-0.286,2.087-0.72,3.09C177.655,194.439,181.659,189.324,181.659,189.324z"/>
						<path style="fill:#D57952;" d="M169.325,189.926c0,0,0.208,0.025,0.567,0.085c0.355,0.071,0.872,0.141,1.478,0.269
							c0.61,0.115,1.314,0.272,2.066,0.436c0.75,0.161,1.552,0.363,2.339,0.499c0.388,0.101,0.807,0.123,1.053,0.156
							c0.194-0.05,0.402-0.083,0.582-0.133c0.164-0.062,0.326-0.124,0.486-0.184c0.344-0.149,0.676-0.293,0.991-0.43
							c0.317-0.15,0.618-0.292,0.896-0.423c0.561-0.265,1.028-0.486,1.355-0.641c0.328-0.156,0.521-0.238,0.521-0.238
							s-0.607,0.575-1.622,1.309c-0.251,0.186-0.538,0.37-0.84,0.564c-0.314,0.188-0.626,0.385-1.004,0.565
							c-0.198,0.088-0.399,0.177-0.604,0.267c-0.198,0.072-0.388,0.113-0.586,0.165c-0.562,0.018-0.969-0.038-1.386-0.123
							c-1.659-0.334-3.221-0.869-4.386-1.314c-0.581-0.222-1.054-0.443-1.388-0.585C169.51,190.025,169.325,189.926,169.325,189.926
							z"/>
						<g>
							<path style="fill:#FFD869;" d="M179.154,189.007c-0.002-0.747-0.081-1.812-1.082-1.797c-0.248,0.004-0.515,0.221-0.49,0.49
								c0.058,0.623,0.457,1.015,0.773,1.523C178.577,189.581,179.155,189.442,179.154,189.007L179.154,189.007z"/>
						</g>
						<g>
							<path style="fill:#FFD869;" d="M176.91,186.987c0.672,0,0.672-1.042,0-1.042C176.238,185.945,176.238,186.987,176.91,186.987
								L176.91,186.987z"/>
						</g>
					</g>
				</g>
				<g>
					<path style="fill:#665470;" d="M168.728,286.808c1.109-0.74,12.459,0.499,14.729,3.003c2.27,2.504-4.49,13.66-4.49,13.66
						S165.515,288.949,168.728,286.808z"/>
					<g>
						<path style="fill:#CCE561;" d="M180.373,268.973c-0.225-0.376-0.838-0.384-1.063-0.003
							c-5.906,9.994-9.85,21.555-12.057,35.342c-1.976,12.346-1.337,24.681,2.071,39.996c0.081,0.362,0.379,0.605,0.743,0.605
							c0.242,0,0.479-0.111,0.636-0.297c0.153-0.183,0.217-0.423,0.175-0.661c-4.895-28.088-1.607-53.806,9.507-74.374
							C180.488,269.386,180.484,269.159,180.373,268.973z"/>
						<path style="fill:#5ABA47;" d="M177.411,275.182c2.51,1.26,5.637,4.904,4.602,7.952c-0.537,1.583-2.426-3.376-4.477-4.857
							c0,0-2.432,3.569-4.136,3.224c-0.619-0.126,1.016-4.015,1.016-4.015s-2.142-0.221-5.315,1.225
							C167.057,279.644,170.249,271.591,177.411,275.182z"/>
						<path style="fill:#CCE561;" d="M177.293,275.115c0.13,0.036,0.205,0.112,0.237,0.207c0.182,0.009,0.303,0.196,0.291,0.367
							c2.158,1.579,3.313,4.417,3.968,6.902c0.004,0.022-0.025,0.025-0.033,0.01c-1.102-2.45-2.33-4.745-4.305-6.582
							c-1.87,0.819-2.408,3.118-3.316,4.776c-0.032,0.058-0.11,0.024-0.092-0.038c0.474-1.745,1.05-3.868,2.574-4.977
							c-2.694-0.571-4.794,0.567-7.089,1.94c-0.016,0.01-0.036-0.009-0.024-0.023C171.523,275.358,174.273,274.271,177.293,275.115z
							"/>
						<g>
							<path style="fill:#CC155B;" d="M189.55,253.974c-0.7-0.452-14.275,11.319-9.906,14.133
								C184.612,271.306,190.331,254.479,189.55,253.974z"/>
							<path style="fill:#B20D3C;" d="M183.197,262.347c1.173-1.783,2.301-3.549,3.14-5.522c0.118-0.273,0.21-0.553,0.291-0.836
								c0.616-0.528,1.172-0.977,1.638-1.314c-0.32,1.516-0.963,3.012-1.747,4.419c0.765-0.671,1.561-1.304,2.389-1.879
								c-0.12,0.368-0.255,0.755-0.403,1.157c-1.531,1.521-3.135,2.975-4.544,4.627C183.584,263.44,182.894,262.812,183.197,262.347
								z"/>
							<path style="fill:#CC155B;" d="M191.072,255.226c1.558-1.232,0.191,9.915-5.41,13.785c-2.501,1.728-5.908,1.896-4.597-1.686
								C182.872,262.384,188.802,257.02,191.072,255.226z"/>
							<path style="fill:#CC155B;" d="M187.87,252.892c0.521-2.424-8.225,4.521-10.054,10.14c-0.964,2.96-0.399,8.066,2.331,5.397
								C183.335,265.31,187.15,256.229,187.87,252.892z"/>
							<path style="fill:#B20D3C;" d="M187.889,252.737c-1.419,1.266-2.207,3.233-2.82,4.969c-0.649,1.973-1.174,3.908-1.563,5.869
								c-1.094,2.006-2.263,3.783-3.359,4.854c-2.73,2.669-3.295-2.438-2.331-5.397C179.602,257.55,187.965,250.809,187.889,252.737
								z"/>
							<path style="fill:#CC155B;" d="M193.177,257.159c0,0,3.604,9.723-2.768,17.316c-5.95,7.092-15.855,0.391-15.855,0.391
								S185.471,260.473,193.177,257.159z"/>
							<path style="fill:#CC155B;" d="M185.009,251.898c0,0-10.825,0.64-14.179,9.969c-3.876,10.785,6.353,14.41,6.353,14.41
								S185.937,261.049,185.009,251.898z"/>
							<g>
								<path style="fill:#EA1B6F;" d="M187.964,272.924c0.08-1.679,1.711-3.356,2.455-4.847c0.989-1.982,1.619-4.169,2.029-6.34
									c0.019-0.095,0.174-0.082,0.188,0.008c0.354,2.267,0.414,4.398-0.09,6.647c-0.409,1.829-1.841,4.86-3.91,5.097
									C188.289,273.529,187.947,273.308,187.964,272.924z"/>
								<path style="fill:#EA1B6F;" d="M186.561,274.12c0.08-0.012,0.158-0.018,0.238-0.016c0.201,0.037,0.24,0.042,0.11,0.018
									c0.129,0.017,0.201,0.004,0.31-0.009c0.291-0.03,0.484,0.184,0.429,0.47c-0.035,0.184-0.133,0.361-0.231,0.519
									c-0.197,0.31-0.479,0.441-0.844,0.443c-0.685-0.003-0.924-1.04-0.286-1.317C186.38,274.189,186.46,274.143,186.561,274.12z"
									/>
							</g>
							<path style="fill:#B20D3C;" d="M185.032,251.905c0.579,3.881-0.17,8.143-1.602,11.833c1.033-0.98,2.276-1.843,3.107-2.507
								c1.976-1.572,4.197-3.308,6.631-4.098c0.035-0.013,0.048,0.037,0.018,0.051c-2.023,0.926-3.888,2.413-5.622,3.779
								c-1.16,0.913-2.26,1.897-3.303,2.939c-0.702,0.701-1.241,1.593-1.905,2.32c-1.537,3.368-5.468,10.057-5.314,9.753
								c1.619-3.171,3.084-6.424,4.54-9.67c0.967-2.155,1.873-4.298,2.478-6.59c0.672-2.543,0.73-5.203,0.931-7.809
								C184.994,251.881,185.028,251.88,185.032,251.905z"/>
							<path style="fill:#B20D3C;" d="M187.86,252.644c0.007-0.037,0.06-0.023,0.053,0.011c-0.364,2.401-1.244,4.811-2.247,7.064
								c0.505-0.539,1.025-1.047,1.521-1.524c1.141-1.098,2.541-2.446,4.015-3.074c0.028-0.011,0.052,0.032,0.028,0.046
								c-1.915,1.121-6.942,6.801-8.201,9.218c-0.064,0.126-0.269,0.057-0.231-0.083c0.338-1.297,1.091-2.488,1.982-3.576
								C185.982,258.184,187.191,255.366,187.86,252.644z"/>
							<path style="fill:#B20D3C;" d="M184.462,251.953c-4.876,2.452-9.228,7.093-10.353,12.493
								c-0.677,3.137-0.213,6.648,0.465,9.752c0.064,0.271,0.132,0.541,0.204,0.807c-2.755-1.842-6.565-5.855-3.948-13.139
								C173.732,253.788,182.23,252.226,184.462,251.953z"/>
						</g>
					</g>
					<path style="fill:#E6D2DD;" d="M127.597,276.111c-10.06-2.078-37.245,28.312-41.289,50.566
						c-0.427,2.348,17.708,32.645,42.672,27.311c24.963-5.335,54.407-43.099,57.607-50.14c3.201-7.042-0.908-12.973-4.48-14.965
						c-1.802-1.006-9.388,3.598-20.483,0C150.528,285.285,130.695,276.751,127.597,276.111z"/>
					<path style="fill:#FFFDE8;" d="M182.106,288.884c-1.802-1.006-9.388,3.598-20.483,0c-9.231-2.993-24.503-9.4-31.161-11.839
						c6.819,10.199,21.026,13.502,32.318,16.18c10.509,2.537,20.795,4.505,22.152,13.494c0.778-1.206,1.343-2.187,1.654-2.87
						C189.787,296.807,185.678,290.876,182.106,288.884z"/>
					<path style="fill:#9C7F95;" d="M182.106,288.884c-1.739-0.97-8.876,3.261-19.344,0.325
						c-1.127,17.215-3.574,34.833-8.799,51.232c16.502-13.311,30.475-31.868,32.624-36.593
						C189.787,296.807,185.678,290.876,182.106,288.884z"/>
					<path style="fill:#9C7F95;" d="M142.346,281.679c-2.233-0.883-4.37-1.731-6.3-2.49c-7.168,23.833-17.654,47.984-31.198,69.424
						c4.547,3.031,9.775,5.307,15.508,5.867c4.735-10.551,8.443-21.602,11.575-33.084
						C135.701,308.954,140.644,295.326,142.346,281.679z"/>
					<g>
						<path style="fill:#B8988D;" d="M182.106,288.884c-1.739-0.97-8.876,3.261-19.344,0.325c-0.086,1.313-0.183,2.627-0.284,3.944
							c0.1,0.023,0.202,0.047,0.302,0.071c10.509,2.536,20.794,4.505,22.152,13.493c0.777-1.205,1.343-2.186,1.654-2.869
							C189.787,296.807,185.678,290.876,182.106,288.884z"/>
						<path style="fill:#B8988D;" d="M136.046,279.189c-0.301,1-0.616,2.001-0.928,3.001c1.961,1.645,4.16,3.04,6.508,4.236
							c0.278-1.582,0.523-3.164,0.72-4.747C140.112,280.796,137.976,279.947,136.046,279.189z"/>
					</g>
					<g>
						<path style="fill:#9C7F95;" d="M180.652,291.893c0.184-0.563-0.573-0.97-0.972-0.566c-0.432,0.439-0.856,0.891-1.328,1.285
							c-0.23,0.193-0.493,0.412-0.704,0.623c-0.11,0.11-0.155,0.306-0.049,0.429c0.343,0.402,1.289,0.111,1.667-0.101
							C179.965,293.168,180.405,292.651,180.652,291.893z"/>
						<path style="fill:#9C7F95;" d="M183.76,295.989c0.294-0.462-0.292-1.053-0.754-0.755c-0.95,0.614-2.015,1.005-3.138,1.175
							c-0.309,0.047-0.277,0.52,0,0.59C181.229,297.345,182.921,297.305,183.76,295.989z"/>
						<path style="fill:#9C7F95;" d="M183.02,293.728c0.981,0.308,1.848-0.577,2.061-1.473c0.169-0.716-0.713-1.004-1.12-0.471
							c-0.189,0.246-0.362,0.491-0.54,0.748c-0.15,0.217-0.335,0.514-0.536,0.687C182.703,293.374,182.816,293.662,183.02,293.728z"
							/>
						<path style="fill:#9C7F95;" d="M183.489,300.963c0.644,0.132,1.223,0.025,1.82-0.232c0.593-0.257,1.053-1.052,0.919-1.689
							c-0.071-0.337-0.524-0.521-0.81-0.33c-0.601,0.401-1.015,1.174-1.795,1.267C183.105,300.039,182.888,300.84,183.489,300.963z"
							/>
						<path style="fill:#9C7F95;" d="M174.208,294.809c-0.72,0.436-1.626,1.064-2.52,0.929c-0.352-0.053-0.55,0.366-0.244,0.578
							c1.138,0.786,3.477,0.696,3.593-1.03C175.065,294.864,174.548,294.603,174.208,294.809z"/>
						<path style="fill:#9C7F95;" d="M168.384,293.547c-0.516-0.063-1.166,0.028-1.677,0.134c-0.595,0.122-1.223,0.026-1.793,0.162
							c-0.145,0.035-0.237,0.232-0.146,0.36c0.683,0.963,2.779,0.822,3.796,0.668C169.381,294.746,169.067,293.63,168.384,293.547z"
							/>
						<path style="fill:#9C7F95;" d="M169.286,291.365c-0.891-0.32-1.912-0.281-2.807,0.034c-0.15,0.054-1.316,0.356-1.128,0.724
							c0.206,0.404,0.885,0.264,1.264,0.282c0.835,0.037,1.705-0.142,2.549-0.137C169.706,292.271,169.759,291.535,169.286,291.365z
							"/>
						<path style="fill:#9C7F95;" d="M176.122,291.065c-1.39-0.27-2.81,0.116-3.828,1.107c-0.396,0.387,0.119,1.068,0.594,0.77
							c0.983-0.619,2.161-0.47,3.234-0.813C176.606,291.973,176.689,291.174,176.122,291.065z"/>
						<path style="fill:#9C7F95;" d="M185.282,303.242c-0.27,0.183-0.584,0.293-0.831,0.506c-0.273,0.234-0.563,0.385-0.919,0.448
							c-0.471,0.084-0.311,0.746,0.106,0.782c0.431,0.036,0.842-0.05,1.238-0.217c0.467-0.195,0.719-0.536,0.95-0.975
							C186,303.456,185.632,303.005,185.282,303.242z"/>
					</g>
				</g>
			</g>
			<g>
				<g>
					<path style="fill:#9B7FA5;" d="M299.37,289.947c0,0-20.933,7.228-48.499-0.907c-12.862-3.795,1.317,13.276,11.176,15.494
						c0,0-3.347,2.262-9.91,0c-8.048-2.773,4.217,31.95,47.233,36.799V289.947z"/>
					<path style="fill:#836998;" d="M299.37,289.947c0,0-8.037,2.771-20.702,2.948c-2.126,7.706-5.622,15.465-7.98,21.36
						c-1.862,4.6-4.199,8.88-6.865,12.914c8.021,6.53,19.694,12.376,35.548,14.163V289.947z"/>
				</g>
				<g>
					<path style="fill:#9B7FA5;" d="M449.796,347.82c-0.579-0.385-0.387-32.926,5.977-31.502c6.363,1.424-1.543,31.502-1.543,31.502
						H449.796z"/>
					<path style="fill:#9B7FA5;" d="M294.886,256.865c0,0-19.01,42.164-17.796,75.228c1.215,33.064,29.555,73.712,95.314,59.151
						c65.759-14.561,84.263-43.074,84.263-43.074s18.2-15.157,12.133-22.594c-6.066-7.438-15.469,20.167-15.469,20.167
						s-40.042-8.797-83.115-91.002L294.886,256.865z"/>
					<path style="opacity:0.5;fill:#DCC6D3;" d="M456.666,348.17c0,0,18.2-15.157,12.133-22.594
						c-6.066-7.438-15.469,20.167-15.469,20.167s-40.042-8.797-83.115-91.002l-22.17,0.625
						c-6.488,26.848-19.101,43.873,3.579,75.803C398.56,397.248,456.666,348.17,456.666,348.17z"/>
					<g>
						<path style="fill:#9B7FA5;" d="M385.83,324.923c0.59,1.718,0.333,3.899,1.992,5.032c0.451,0.309,1.201,0.013,1.305-0.53
							c0.345-1.813-0.819-3.958-2.123-5.185C386.519,323.784,385.591,324.227,385.83,324.923z"/>
						<path style="fill:#9B7FA5;" d="M397.109,321.972c-0.989-0.562-2.094-0.935-3.191-1.215c-0.716-0.182-1.239,0.915-0.52,1.232
							c1.84,0.811,3.306,2.064,4.823,3.346c0.694,0.586,1.663-0.136,1.251-0.965C398.905,323.228,398.212,322.598,397.109,321.972z"
							/>
						<path style="fill:#9B7FA5;" d="M397.745,332.287c-0.56-0.52-1.125-1.036-1.759-1.463c-0.869-0.584-1.748,0.684-1.08,1.398
							c1.057,1.128,1.617,2.821,3.215,3.319c0.668,0.209,1.323-0.472,1.13-1.13C398.997,333.543,398.391,332.886,397.745,332.287z"
							/>
						<path style="fill:#9B7FA5;" d="M411.125,333.252c-1.164-1.35-2.912-1.631-4.557-2.099c-0.877-0.248-1.39,0.997-0.613,1.456
							c1.488,0.881,2.835,1.898,4.607,2.002C411.309,334.654,411.544,333.737,411.125,333.252z"/>
						<path style="fill:#9B7FA5;" d="M415.408,347.739c-0.972-0.231-1.986-0.56-2.925-0.907c-0.962-0.355-1.831-1.224-2.886-1.053
							c-0.254,0.042-0.371,0.343-0.32,0.566c0.233,1.006,1.631,1.735,2.451,2.277c1.208,0.797,2.271,0.958,3.68,0.711
							C416.227,349.19,416.173,347.921,415.408,347.739z"/>
						<path style="fill:#9B7FA5;" d="M422.566,341.889c-1.312-0.192-1.859,1.572-0.556,2.018c1.007,0.344,2.038,0.92,3.121,0.768
							c0.658-0.093,0.904-0.978,0.604-1.485C425.095,342.105,423.682,342.053,422.566,341.889z"/>
						<path style="fill:#9B7FA5;" d="M408.566,322.28c0.737,0.772,1.48,1.433,2.419,1.943c0.81,0.441,1.707-0.64,1.003-1.298
							c-0.698-0.653-1.446-1.178-2.212-1.748c-0.718-0.535-1.384-1.453-2.23-1.744c-0.41-0.142-0.703,0.28-0.641,0.641
							C407.05,320.905,408.004,321.692,408.566,322.28z"/>
						<path style="fill:#9B7FA5;" d="M409.962,339.673c0.539,0.512,1.198,1.196,1.905,1.462c0.913,0.344,1.714,0.517,2.691,0.443
							c0.721-0.055,0.794-0.942,0.162-1.203c-0.714-0.297-1.447-0.59-2.146-0.92c-0.649-0.306-1.405-0.426-2.077-0.704
							C409.974,338.533,409.585,339.315,409.962,339.673z"/>
						<path style="fill:#9B7FA5;" d="M425.038,333.154c-1.13-0.766-2.206-1.327-3.471-1.834c-1.029-0.411-2.394-1.153-3.516-0.955
							c-0.216,0.037-0.253,0.285-0.183,0.45c0.395,0.932,1.701,1.564,2.556,2.024c1.325,0.716,2.598,1.236,4.023,1.714
							C425.313,334.843,425.724,333.618,425.038,333.154z"/>
						<path style="fill:#9B7FA5;" d="M437.091,343.508c0.604,0.153,1.015-0.466,0.762-0.99c-0.815-1.679-2.847-2.272-4.447-2.975
							c-0.795-0.349-1.393,0.649-0.681,1.163C434.1,341.697,435.419,343.084,437.091,343.508z"/>
						<path style="fill:#9B7FA5;" d="M440.435,348.58c-2.552-0.472-5.201-0.312-7.791-0.477c-0.734-0.047-0.863,1.083-0.171,1.263
							c2.586,0.673,5.3,1.266,7.962,0.809C441.232,350.038,441.222,348.726,440.435,348.58z"/>
						<path style="fill:#9B7FA5;" d="M376.454,315.519c-0.096,1.714-0.305,3.57,0.29,5.21c0.219,0.607,1.281,0.568,1.203-0.162
							c-0.182-1.689-0.476-3.344-0.574-5.048C377.339,314.927,376.487,314.927,376.454,315.519z"/>
						<path style="fill:#9B7FA5;" d="M381.462,335.533c-0.437-0.767-0.638-1.657-0.773-2.52c-0.122-0.783-1.181-0.479-1.263,0.171
							c-0.236,1.873-0.184,4.33,1.713,5.315c0.62,0.322,1.343-0.202,1.17-0.9C382.126,336.862,381.838,336.195,381.462,335.533z"/>
						<path style="fill:#9B7FA5;" d="M398.229,343.273c-0.166-0.107-0.327-0.217-0.479-0.344c-0.301-0.254-0.591-0.361-0.915-0.526
							c-0.457-0.232-0.845-0.585-1.033-1.07c-0.132-0.337-0.389-0.588-0.774-0.588c-0.41,0-0.837,0.365-0.802,0.802
							c0.076,0.94,0.434,1.701,1.033,2.42c0.301,0.361,0.743,0.766,1.188,0.914c0.41,0.139,0.858,0.18,1.287,0.219
							C398.77,345.194,398.981,343.762,398.229,343.273z"/>
					</g>
				</g>
				<g>
					<g>
						<path style="fill:#464070;" d="M340.053,292.262c15.862,2.765,31.427-23.071,32.997-29.298
							c1.569-6.227-6.029-39.234-5.909-47.776c0.121-8.541,11.322-55.46-15.342-52.283c-26.666,3.177-50.613,74.52-61.523,96.419
							C290.275,259.323,299.14,285.129,340.053,292.262z"/>
						<path style="fill:#837692;" d="M367.141,215.188c0.11-7.785,9.42-47.443-9.119-52.003c7.021,17.404,8.959,35.896-1.938,52.804
							c-4.231,6.682-8.686,12.919-11.36,20.492c-3.785,10.691-5.122,22.497-6.013,33.857c-0.584,7.467-0.428,14.628,0.392,21.74
							c0.321,0.059,0.626,0.127,0.95,0.183c15.862,2.765,31.427-23.071,32.997-29.298
							C374.619,256.737,367.021,223.73,367.141,215.188z"/>
						<g>
							<path style="fill:#464070;" d="M350.35,236.62c0.284-0.835,0.474-1.647,0.669-2.507c0.16-0.709,0.529-1.471,0.298-2.184
								c-0.091-0.277-0.401-0.341-0.614-0.162c-0.566,0.474-0.683,1.328-0.908,2.008c-0.308,0.928-0.488,1.729-0.467,2.707
								C349.34,237.084,350.162,237.171,350.35,236.62z"/>
							<path style="fill:#464070;" d="M352.003,236.623c-0.092,0.621-0.11,1.279-0.145,1.908c-0.042,0.741-0.225,1.437-0.234,2.183
								c-0.011,0.808,1.061,0.854,1.324,0.179c0.503-1.298,0.559-3.3-0.434-4.405C352.372,236.328,352.037,236.395,352.003,236.623z
								"/>
							<path style="fill:#464070;" d="M347.646,244.185c0.14-0.619-0.74-0.856-0.944-0.26c-0.563,1.639-1.211,3.279-1.132,5.03
								c0.026,0.567,0.777,0.649,0.963,0.13C347.101,247.505,347.279,245.825,347.646,244.185z"/>
							<path style="fill:#464070;" d="M349.906,247.56c-0.273-0.259-0.638-0.053-0.68,0.281c-0.071,0.576,0.082,1.182,0.025,1.775
								c-0.064,0.684-0.224,1.32-0.24,2.012c-0.017,0.732,0.971,0.779,1.203,0.162c0.276-0.729,0.324-1.396,0.292-2.174
								C350.479,248.951,350.414,248.04,349.906,247.56z"/>
							<path style="fill:#464070;" d="M342.196,256.468c0.148-0.791,0.242-1.564,0.315-2.365c0.09-0.967,0.365-1.953,0.322-2.92
								c-0.015-0.327-0.455-0.471-0.628-0.17c-0.85,1.475-1.101,3.615-1.213,5.293C340.947,256.992,342.069,257.147,342.196,256.468
								z"/>
							<path style="fill:#464070;" d="M342.637,260.897c-0.939,1.622-1.497,4.22-0.895,6.024c0.18,0.538,0.874,0.51,1.064,0
								c0.299-0.803,0.502-1.668,0.59-2.525c0.106-1.051,0.424-2.137,0.383-3.189C343.755,260.608,342.951,260.354,342.637,260.897z
								"/>
							<path style="fill:#464070;" d="M340.238,270.67c-0.101-0.355-0.597-0.427-0.784-0.103c-0.955,1.654-0.927,4.271-0.016,5.918
								c0.416,0.751,1.4,0.197,1.287-0.543c-0.145-0.951-0.271-1.908-0.349-2.867C340.311,272.272,340.458,271.446,340.238,270.67z"
								/>
							<path style="fill:#464070;" d="M344.861,280.585c0.065-0.65-1.056-0.803-1.144-0.155c-0.223,1.652,0.063,3.259,1.003,4.649
								c0.315,0.468,1.143,0.188,0.951-0.401C345.224,283.303,344.713,282.064,344.861,280.585z"/>
							<path style="fill:#464070;" d="M338.97,286.338c-0.195-0.208-0.534-0.092-0.614,0.163c-0.155,0.501-0.079,1.121-0.112,1.646
								c-0.036,0.552,0.226,1.13,0.489,1.595c0.252,0.446,0.885,0.222,0.913-0.247c0.036-0.582,0.086-1.156-0.081-1.725
								C339.423,287.287,339.321,286.713,338.97,286.338z"/>
							<path style="fill:#464070;" d="M351.008,264.77c-0.229,2.181-0.689,4.267,0.315,6.323c0.333,0.684,1.204,0.153,1.119-0.472
								c-0.263-1.948-0.459-3.893-0.638-5.852C351.758,264.255,351.062,264.26,351.008,264.77z"/>
							<path style="fill:#464070;" d="M347.453,257.949c-0.217-0.633-1.156-0.382-1.004,0.276c0.399,1.73,0.742,3.477,1.506,5.086
								c0.32,0.674,1.362,0.192,1.176-0.495C348.683,261.163,348.011,259.571,347.453,257.949z"/>
							<path style="fill:#464070;" d="M362.03,172.501c0.597,1.327,1.036,2.766,1.755,4.025c0.223,0.389,0.729,0.105,0.672-0.283
								c-0.214-1.456-1.143-2.809-1.845-4.082C362.397,171.774,361.855,172.114,362.03,172.501z"/>
							<path style="fill:#464070;" d="M364.847,172.372c0.554,1.398,0.68,2.816,0.966,4.273c0.057,0.288,0.545,0.3,0.591,0
								c0.236-1.537-0.52-3.085-1.277-4.391C365.042,172.108,364.781,172.207,364.847,172.372z"/>
							<path style="fill:#464070;" d="M367.658,179.459c-0.023-0.276-0.405-0.276-0.429,0c-0.084,0.98-0.288,2.017-0.141,2.994
								c0.054,0.352,0.656,0.352,0.71,0C367.946,181.476,367.742,180.439,367.658,179.459z"/>
							<path style="fill:#464070;" d="M362.887,207.212c-0.282,0.814-0.554,1.59-0.727,2.434c-0.086,0.418,0.53,0.739,0.728,0.307
								c0.169-0.37,0.344-0.734,0.416-1.136c0.084-0.474,0.157-0.95,0.233-1.425C363.604,206.967,363.031,206.795,362.887,207.212z"
								/>
						</g>
					</g>
					<g>
						<path style="fill:#E0C5D4;" d="M343.464,179.279c-3.854-1.608-7.648,2.54-8.069,6.464c-0.825,2.857,1.268,6.377,4.309,6.462
							c2.618,0.073,5.15-2.574,6.219-4.727C347.441,184.419,346.872,180.701,343.464,179.279z"/>
						<path style="fill:#E0C5D4;" d="M355.316,188.793c0.436,2.364,2.145,5.605,4.682,6.254c2.946,0.753,5.926-2.057,5.918-5.03
							c0.673-3.889-1.835-8.92-5.984-8.433C356.265,182.016,354.695,185.435,355.316,188.793z"/>
						<path style="fill:#B746A1;" d="M333.395,190.426c-1.499-1.138-4.021-1.479-5.498-0.145c-1.401,1.266-1.386,3.066-0.428,4.362
							c0.583,1.354,2.218,2.375,3.469,2.811c2.122,0.739,4.597-0.067,4.987-2.512C336.202,193.213,334.662,191.386,333.395,190.426z
							"/>
						<path style="fill:#BC66A5;" d="M368.398,196.256c-0.522-0.893-1.205-1.281-2.193-1.522c-1.021-0.249-2.355,0.33-3.174,1.008
							c-0.488,0.298-0.9,0.704-1.201,1.269c-0.204,0.388-0.297,0.823-0.302,1.261c-0.104,0.679,0.028,1.362,0.595,1.925
							c0.295,0.293,0.612,0.508,0.975,0.616c1.002,0.468,2.122,0.385,3.149-0.056c0.972-0.418,1.898-1.404,2.239-2.405
							C368.711,197.694,368.762,196.878,368.398,196.256z"/>
						<g>
							<path style="fill:#4B2719;" d="M337.484,184.864c-0.321,2.019-0.206,4.096,1.158,5.711c2.047,2.421,4.982-0.04,5.923-2.193
								c0.128-0.295-0.145-0.64-0.462-0.462c-1.443,0.816-3.166,3.118-4.599,0.997c-0.791-1.173-1.348-2.665-1.606-4.054
								C337.86,184.661,337.518,184.656,337.484,184.864L337.484,184.864z"/>
						</g>
						<g>
							<path style="fill:#4B2719;" d="M356.727,189.695c0.061,1.927,0.939,3.966,2.676,4.911c1.729,0.941,4.256-0.547,5.025-2.177
								c0.182-0.384-0.111-0.827-0.553-0.72c-1.529,0.372-2.649,2.341-4.336,0.973c-1.034-0.84-1.554-2.204-2.499-3.117
								C356.928,189.457,356.722,189.531,356.727,189.695L356.727,189.695z"/>
						</g>
						<path style="fill:#B746A1;" d="M363.031,195.742c-0.488,0.298-0.9,0.704-1.201,1.269c-0.204,0.388-0.297,0.823-0.302,1.261
							c-0.104,0.679,0.028,1.362,0.595,1.925c0.148,0.148,0.305,0.275,0.468,0.38c0.384-1.707,0.669-3.421,0.862-5.141
							C363.303,195.535,363.159,195.636,363.031,195.742z"/>
						<g>
							<path style="fill:#F69E5F;" d="M343.436,193.006c0,0,4.217-4.25,7.043-3.872c2.825,0.378,5.274,4.762,5.274,4.762
								s-4.966,4.974-6.327,4.808C348.066,198.539,343.436,193.006,343.436,193.006z"/>
							<path style="fill:#FFB452;" d="M355.753,193.895c0,0-2.449-4.384-5.274-4.762c-0.104-0.014-0.213-0.009-0.321-0.011
								c0.862,2.12,1.532,4.356,0.84,6.433c-0.337,1.077-1.007,2.098-1.799,3.077c0.081,0.033,0.161,0.063,0.227,0.071
								C350.787,198.869,355.753,193.895,355.753,193.895z"/>
							<path style="fill:#D57952;" d="M343.436,193.006c0,0,0.205,0.051,0.553,0.153c0.345,0.113,0.85,0.245,1.437,0.445
								c0.59,0.188,1.271,0.429,1.997,0.682c0.726,0.251,1.497,0.548,2.262,0.778c0.372,0.146,0.786,0.219,1.026,0.282
								c0.198-0.025,0.409-0.034,0.594-0.062c0.171-0.041,0.339-0.083,0.505-0.123c0.359-0.107,0.705-0.21,1.035-0.307
								c0.334-0.111,0.649-0.215,0.94-0.312c0.59-0.196,1.079-0.358,1.423-0.472c0.345-0.115,0.546-0.174,0.546-0.174
								s-0.671,0.498-1.768,1.105c-0.273,0.154-0.579,0.303-0.903,0.458c-0.334,0.149-0.667,0.307-1.065,0.441
								c-0.207,0.063-0.417,0.128-0.631,0.192c-0.204,0.048-0.398,0.065-0.603,0.093c-0.559-0.049-0.956-0.155-1.36-0.289
								c-1.606-0.532-3.093-1.251-4.196-1.833c-0.549-0.291-0.992-0.567-1.308-0.748
								C343.608,193.126,343.436,193.006,343.436,193.006z"/>
							<g>
								<path style="fill:#FFD869;" d="M351.612,190.173c0.121,0.449,0.273,0.872,0.558,1.242c0.28,0.365,0.421,0.877,0.88,1.04
									c0.22,0.077,0.416-0.088,0.489-0.278c0.184-0.476-0.259-0.9-0.561-1.217c-0.374-0.392-0.829-0.569-1.277-0.856
									C351.655,190.074,351.599,190.123,351.612,190.173L351.612,190.173z"/>
							</g>
							<g>
								<path style="fill:#FFD869;" d="M353.485,193.217c0.01,0.031,0.019,0.062,0.028,0.093c0.146,0.493,0.93,0.274,0.768-0.212
									c-0.011-0.031-0.02-0.062-0.03-0.092C354.09,192.525,353.339,192.723,353.485,193.217L353.485,193.217z"/>
							</g>
						</g>
						<g>
							<path style="fill:#F7DCEC;" d="M363.263,184.191c0.141,0.452,0.119,1.061,0.478,1.398c0.145,0.137,0.435,0.137,0.529-0.068
								c0.249-0.548-0.114-1.112-0.391-1.591C363.689,183.603,363.148,183.821,363.263,184.191z"/>
							<path style="fill:#F7DCEC;" d="M365.319,186.55c-0.164-0.394-0.735-0.256-0.65,0.18c0.086,0.434-0.023,0.856,0.265,1.221
								c0.135,0.17,0.376,0.079,0.482-0.062C365.705,187.501,365.486,186.951,365.319,186.55z"/>
							<path style="fill:#F7DCEC;" d="M363.526,188.011c0.055,0.368-0.076,0.694,0.122,1.027c0.129,0.217,0.453,0.22,0.582,0
								c0.239-0.408,0.055-0.869-0.144-1.263C363.917,187.439,363.479,187.695,363.526,188.011z"/>
							<path style="fill:#F7DCEC;" d="M364.522,189.747c0.034,0.165,0.033,0.322,0.048,0.488c0.033,0.356,0.471,0.402,0.601,0.081
								c0.091-0.219,0.094-0.433,0.072-0.667C365.196,189.115,364.412,189.224,364.522,189.747z"/>
						</g>
						<g>
							<path style="fill:#F7DCEC;" d="M345.295,182.755c-0.07-0.361-0.191-0.729-0.545-0.874c-0.084-0.035-0.211,0.004-0.269,0.071
								c-0.181,0.206-0.161,0.399-0.213,0.661c-0.074,0.376-0.119,0.605-0.035,0.985c0.073,0.328,0.543,0.456,0.768,0.203
								C345.293,183.471,345.381,183.193,345.295,182.755z"/>
							<path style="fill:#F7DCEC;" d="M346.144,183.935c-0.056-0.15-0.326-0.199-0.354,0c-0.055,0.383-0.24,0.807-0.118,1.185
								c0.065,0.2,0.357,0.324,0.513,0.135C346.522,184.842,346.311,184.389,346.144,183.935z"/>
							<path style="fill:#F7DCEC;" d="M343.853,185.175c-0.078,0.38-0.408,0.677-0.363,1.074c0.025,0.231,0.216,0.427,0.465,0.355
								c0.56-0.163,0.663-0.818,0.621-1.331C344.544,184.883,343.942,184.745,343.853,185.175z"/>
							<path style="fill:#F7DCEC;" d="M344.97,186.328c-0.02,0.328-0.213,0.492-0.12,0.823c0.065,0.23,0.344,0.289,0.513,0.135
								c0.326-0.297,0.204-0.718,0.008-1.067C345.259,186.025,344.981,186.123,344.97,186.328z"/>
						</g>
					</g>
				</g>
				<g>
					<path style="fill:#9B7FA5;" d="M388.901,300.064c2.361,0.342,31.978-18.886,25.737-43.638
						c-6.241-24.752-45.054-52.801-52.205-55.742c-7.155-2.942-12.931,1.381-14.793,5.023c0,0,4.071,10.211,4.882,21.831
						C354.308,253.154,366.514,296.833,388.901,300.064z"/>
					<path style="fill:#7E688F;" d="M385.349,217.219c-10.143-8.847-19.709-15.217-22.915-16.536
						c-7.155-2.942-12.931,1.381-14.793,5.023c0,0,2.225,5.585,3.712,13.191C362.387,215.73,374.08,215.042,385.349,217.219z"/>
					<path style="fill:#9B7FA5;" d="M414.639,256.426c-4.776-18.944-28.615-39.803-42.752-49.874
						c-0.002-0.002-0.008-0.008-0.008-0.008s-8.233-7.794-15.587-7.358c-3.221,0.189-7.266,3.411-8.683,6.6
						c-1.374,3.088-2.334,12.285-1.556,13.368c1.313,1.821,15.271-17.802,25.498-10.663c22.404,15.639,17.35,91.573,17.35,91.573
						C391.263,300.405,420.88,281.178,414.639,256.426z"/>
					<path style="opacity:0.5;fill:#DCC6D3;" d="M414.639,256.426c-4.776-18.944-28.615-39.803-42.752-49.874
						c-0.002-0.002-0.008-0.008-0.008-0.008s-8.233-7.794-15.587-7.358c-3.221,0.189-7.266,3.411-8.683,6.6
						c-1.374,3.088-2.334,12.285-1.556,13.368c1.313,1.821,15.271-17.802,25.498-10.663c22.404,15.639,17.35,91.573,17.35,91.573
						C391.263,300.405,420.88,281.178,414.639,256.426z"/>
				</g>
				<g>
					<g>
						<path style="fill:#FFA631;" d="M365.567,397.562c0,0-1.599,6.47-0.761,7.459c0.837,0.989,8.143-0.229,9.285,1.598
							c1.142,1.827-0.152,2.74-2.093,2.284c-1.941-0.457-8.183-2.208-9.021-1.751c-0.837,0.456,2.133,3.577-1.902,4.034
							c-4.034,0.457-8.003-2.026-3.272-3.806c0.608-0.229-1.447-0.608-5.1,0.152c-3.652,0.761-6.697,2.054-7.915,0.456
							c-1.219-1.598,1.445-3.196,6.697-2.739c5.252,0.456,8.98-0.99,9.514-1.98c0.533-0.989,1.065-5.708,1.065-5.708H365.567z"/>
						<g>
							<path style="fill:#EF8B1D;" d="M361.738,400.011c0.026-0.176,0.052-0.348,0.076-0.516c1.097,0.055,2.201,0.221,3.225,0.512
								c-0.016,0.082-0.032,0.161-0.047,0.244C363.929,400.044,362.836,400.004,361.738,400.011z"/>
							<path style="fill:#EF8B1D;" d="M361.626,400.711c1.082,0.105,2.166,0.317,3.184,0.6c-0.038,0.244-0.073,0.487-0.105,0.728
								c-1.053-0.254-2.137-0.416-3.227-0.503C361.529,401.27,361.578,400.991,361.626,400.711z"/>
							<path style="fill:#EF8B1D;" d="M364.571,403.469c-1.107-0.25-2.218-0.46-3.355-0.582c-0.02-0.002-0.042-0.002-0.063-0.003
								c0.068-0.212,0.137-0.471,0.203-0.764c1.114,0.145,2.223,0.375,3.267,0.632C364.599,403.002,364.58,403.242,364.571,403.469z
								"/>
							<path style="fill:#EF8B1D;" d="M360.79,403.529c1.289,0.104,2.553,0.306,3.794,0.693c0.012,0.138,0.029,0.26,0.053,0.371
								c-1.569-0.31-3.194-0.384-4.808-0.439C360.258,403.948,360.583,403.734,360.79,403.529z"/>
							<path style="fill:#EF8B1D;" d="M366.707,405.443c-0.743,0.371-1.018,1.111-1.279,1.891c-0.237-0.045-0.463-0.086-0.679-0.121
								c0.219-0.719,0.594-1.373,1.135-1.833C366.128,405.409,366.41,405.428,366.707,405.443z"/>
							<path style="fill:#EF8B1D;" d="M369.56,405.513c0.095,0.002,0.189,0.006,0.284,0.009c-0.391,0.441-0.782,0.88-1.125,1.361
								c-0.245,0.345-0.387,0.706-0.485,1.076c-0.203-0.05-0.407-0.099-0.611-0.147c0.116-0.315,0.273-0.623,0.51-0.932
								C368.533,406.358,369.047,405.933,369.56,405.513z"/>
							<path style="fill:#EF8B1D;" d="M370.918,405.575c0.29,0.022,0.568,0.05,0.838,0.085c-0.49,0.357-0.967,0.731-1.389,1.175
								c-0.428,0.451-0.632,0.948-0.747,1.469c-0.298-0.075-0.604-0.152-0.919-0.23c0.156-0.427,0.36-0.824,0.631-1.146
								C369.795,406.374,370.34,405.952,370.918,405.575z"/>
							<path style="fill:#EF8B1D;" d="M356.665,407.915c2.235-0.232,4.86,0.487,6.578,1.743c-0.015,0.21-0.07,0.412-0.18,0.599
								c-2.193-1.208-4.972-1.55-7.408-1.072C355.665,408.771,355.97,408.334,356.665,407.915z"/>
							<path style="fill:#EF8B1D;" d="M362.914,407.972c0.078,0.282,0.188,0.606,0.262,0.94c-0.892-0.386-1.79-0.691-2.759-0.942
								c-1.074-0.278-2.145-0.248-3.219-0.334c0.185-0.087,0.383-0.173,0.606-0.256c0.24-0.091,0.058-0.204-0.472-0.262
								c0.89-0.255,1.905-0.12,2.797,0.047C361.034,407.335,362.02,407.581,362.914,407.972z"/>
							<path style="fill:#EF8B1D;" d="M356.426,405.118c0.284-0.043,0.559-0.09,0.82-0.143c-0.194,0.268-0.554,0.485-0.766,0.677
								c-0.413,0.375-0.735,0.916-0.97,1.472c-0.192,0.015-0.397,0.033-0.609,0.057c0.168-0.521,0.44-0.978,0.818-1.435
								C355.924,405.5,356.173,405.307,356.426,405.118z"/>
							<path style="fill:#EF8B1D;" d="M354.95,405.281c-0.202,0.284-0.399,0.57-0.576,0.876c-0.22,0.381-0.387,0.771-0.54,1.167
								c-0.264,0.043-0.541,0.093-0.826,0.149c0.245-0.799,0.757-1.522,1.359-2.159C354.566,405.307,354.759,405.295,354.95,405.281
								z"/>
							<path style="fill:#EF8B1D;" d="M352.883,405.323c-0.255,0.323-0.509,0.647-0.733,0.992c-0.304,0.463-0.499,0.966-0.641,1.486
								c-0.211,0.05-0.417,0.101-0.622,0.151c0.285-0.992,0.916-1.83,1.64-2.639C352.646,405.319,352.764,405.32,352.883,405.323z"
								/>
							<path style="fill:#EF8B1D;" d="M350.258,405.182c-0.459,1.012-0.708,2.047-0.846,3.134c-0.254,0.062-0.499,0.117-0.74,0.168
								c0.176-1.142,0.795-2.276,1.416-3.306C350.144,405.179,350.2,405.18,350.258,405.182z"/>
							<path style="fill:#EF8B1D;" d="M346.215,408.72c0.023-0.469,0.098-0.935,0.2-1.369c0.183-0.765,0.686-1.416,1.239-2.033
								c0.195-0.029,0.398-0.056,0.611-0.076c-0.397,0.607-0.783,1.219-1.023,1.917c-0.188,0.547-0.227,1.064-0.209,1.576
								C346.74,408.753,346.468,408.749,346.215,408.72z"/>
							<path style="fill:#EF8B1D;" d="M367.997,405.483c0.098,0.002,0.195,0.004,0.295,0.004c-0.698,0.575-1.268,1.292-1.711,2.087
								c-0.168-0.037-0.33-0.071-0.493-0.105C366.566,406.686,367.203,406.01,367.997,405.483z"/>
							<path style="fill:#EF8B1D;" d="M373.534,406.147c-0.451,0.45-0.836,0.959-1.154,1.552c-0.206,0.384-0.332,0.785-0.441,1.189
								c-0.194-0.047-0.432-0.105-0.697-0.172c0.371-1.036,1.02-2.007,1.809-2.777C373.229,405.998,373.39,406.068,373.534,406.147z
								"/>
						</g>
						<path style="opacity:0.4;fill:#FFB452;" d="M362.121,404.077c0.33-2.23,1.083-4.366,1.805-6.516h1.642
							c0,0-1.599,6.47-0.761,7.459c0.837,0.989,8.143-0.229,9.285,1.598c1.142,1.827-0.152,2.74-2.093,2.284
							c-1.941-0.457-8.183-2.208-9.021-1.751c-0.77,0.421,1.678,3.101-1.092,3.876C361.724,408.669,361.684,406.268,362.121,404.077
							z"/>
					</g>
					<g>
						<path style="fill:#9B7FA5;" d="M373.051,389.588c0,0-3.273,10.502-5.481,10.198c-2.207-0.304-3.576-0.912-3.576-0.912
							s-2.207,1.293-4.263,0.075c-2.056-1.218-3.197-10.275-3.197-10.275L373.051,389.588z"/>
						<path style="opacity:0.5;fill:#DCC6D3;" d="M368.031,395.69c-1.194,1.066-2.296,2.278-3.453,3.403
							c0.601,0.205,1.636,0.507,2.991,0.692c1.539,0.212,3.593-4.819,4.697-7.893C370.81,393.062,369.483,394.406,368.031,395.69z"
							/>
					</g>
				</g>
				<g>
					<g>
						<path style="fill:#FFA631;" d="M336.194,392.994c0,0-6.09,9.591-5.482,10.123c0.609,0.533,5.786,0.838,7.079,0.533
							c1.294-0.305,1.979,1.75,0,2.436c-1.979,0.685-6.012-1.294-6.621-1.142c-0.609,0.152,3.882,1.75,2.739,2.511
							c-1.142,0.762-4.262,1.065-4.566,0c-0.305-1.064,0.229-2.357-0.913-2.282c-1.142,0.076-12.863,2.664-15.451,1.522
							c-2.588-1.143-2.892-3.502,2.208-2.893c5.099,0.608,13.471-0.152,13.7-0.761c0.228-0.609,1.825-12.711,1.825-12.711
							L336.194,392.994z"/>
						<g>
							<path style="fill:#EF8B1D;" d="M329.691,397.855c0.03-0.214,0.06-0.428,0.09-0.643c1.167,0.035,2.331,0.274,3.451,0.632
								c-0.075,0.127-0.148,0.255-0.224,0.383C331.902,398.04,330.805,397.915,329.691,397.855z"/>
							<path style="fill:#EF8B1D;" d="M332.097,399.831c-0.862-0.184-1.754-0.28-2.638-0.339c0.021-0.142,0.041-0.283,0.062-0.428
								c0.951,0.042,1.865,0.166,2.757,0.443C332.216,399.617,332.156,399.725,332.097,399.831z"/>
							<path style="fill:#EF8B1D;" d="M331.1,401.754c-0.635-0.171-1.273-0.282-1.923-0.35c0.031-0.203,0.064-0.417,0.099-0.647
								c0.697,0.103,1.384,0.285,2.049,0.532C331.242,401.453,331.168,401.608,331.1,401.754z"/>
							<path style="fill:#EF8B1D;" d="M330.701,402.782c-0.585-0.035-1.165-0.041-1.747-0.03c0.021-0.107,0.044-0.238,0.071-0.396
								c0.581,0.041,1.161,0.111,1.738,0.208C330.737,402.646,330.717,402.718,330.701,402.782z"/>
							<path style="fill:#EF8B1D;" d="M328.143,405.209c-0.184,0.027-0.431,0.068-0.731,0.121c-0.011-0.189-0.031-0.38-0.088-0.578
								c-0.115-0.42-0.258-0.811-0.476-1.173c0.15-0.021,0.299-0.041,0.436-0.063C327.711,403.985,328.057,404.594,328.143,405.209z
								"/>
							<path style="fill:#EF8B1D;" d="M326.255,404.827c0.115,0.191,0.213,0.421,0.282,0.66c-0.325,0.06-0.68,0.124-1.062,0.192
								c-0.107-0.671-0.346-1.303-0.735-1.869c0.242-0.021,0.47-0.042,0.698-0.065C325.746,404.08,326.023,404.443,326.255,404.827z
								"/>
							<path style="fill:#EF8B1D;" d="M324.215,405.903c-0.34,0.059-0.692,0.12-1.052,0.181c-0.313-0.757-0.736-1.448-1.235-2.104
								c0.376-0.015,0.745-0.032,1.108-0.052C323.546,404.53,323.974,405.186,324.215,405.903z"/>
							<path style="fill:#EF8B1D;" d="M320.841,404.793c0.371,0.463,0.738,0.966,0.975,1.51c-0.433,0.068-0.871,0.134-1.31,0.196
								c-0.343-0.866-0.741-1.702-1.249-2.476c0.31,0.002,0.619,0.001,0.93-0.003C320.41,404.272,320.628,404.529,320.841,404.793z"
								/>
							<path style="fill:#EF8B1D;" d="M317.445,403.978c0.455,0.552,0.856,1.157,1.244,1.75c0.188,0.285,0.376,0.606,0.535,0.944
								c-0.421,0.053-0.836,0.101-1.243,0.143c-0.338-1.033-0.886-2.067-1.531-2.896
								C316.775,403.941,317.105,403.962,317.445,403.978z"/>
							<path style="fill:#EF8B1D;" d="M314.912,403.777c0.21,0.287,0.413,0.58,0.621,0.855c0.526,0.693,0.829,1.48,0.964,2.306
								c-0.396,0.024-0.773,0.04-1.129,0.044c-0.15-0.496-0.335-0.982-0.555-1.476c-0.244-0.552-0.551-1.227-0.944-1.794
								C314.187,403.718,314.533,403.739,314.912,403.777z"/>
							<path style="fill:#EF8B1D;" d="M332.592,405.89c0.313,0.173,0.62,0.356,0.88,0.54c-1.364-0.24-2.941-0.084-4.221,0.444
								c-0.018-0.225-0.023-0.446-0.03-0.652C330.23,405.791,331.458,405.711,332.592,405.89z"/>
							<path style="fill:#EF8B1D;" d="M331.263,405.143c0.116,0.081,0.289,0.181,0.502,0.298c-0.47-0.007-0.938-0.01-1.408,0.033
								c-0.427,0.04-0.794,0.197-1.168,0.351c-0.034-0.255-0.121-0.449-0.306-0.557
								C329.597,404.964,330.465,405.025,331.263,405.143z"/>
							<path style="fill:#EF8B1D;" d="M333.202,403.631c-0.099,0.158-0.18,0.326-0.237,0.496c-0.13,0.38-0.199,0.788-0.29,1.184
								c-0.119-0.039-0.232-0.074-0.342-0.108c-0.074-0.504-0.023-0.974,0.164-1.483c0.019-0.049,0.04-0.103,0.064-0.157
								C332.767,403.587,332.979,403.61,333.202,403.631z"/>
							<path style="fill:#EF8B1D;" d="M334.865,403.744c-0.046,0.117-0.097,0.23-0.135,0.352c-0.168,0.56-0.327,1.133-0.452,1.706
								c-0.169-0.047-0.335-0.095-0.499-0.144c-0.16-0.685-0.161-1.237,0.08-1.971C334.193,403.711,334.53,403.73,334.865,403.744z"
								/>
							<path style="fill:#EF8B1D;" d="M336.572,403.763c-0.101,0.331-0.195,0.666-0.242,1.02c-0.063,0.464-0.119,0.937-0.142,1.41
								c-0.197-0.021-0.396-0.048-0.599-0.085c-0.158-0.752-0.181-1.577-0.015-2.342
								C335.931,403.772,336.266,403.771,336.572,403.763z"/>
						</g>
						<path style="opacity:0.4;fill:#FFB452;" d="M330.039,400.699c1.031-2.979,2.325-5.96,3.472-9.009l2.684,1.304
							c0,0-6.09,9.591-5.482,10.123c0.609,0.533,5.786,0.838,7.079,0.533c1.294-0.305,1.979,1.75,0,2.436
							c-1.979,0.685-6.012-1.294-6.621-1.142c-0.609,0.152,3.882,1.75,2.739,2.511c-0.544,0.363-1.536,0.62-2.46,0.676
							C330.207,405.744,329.3,403.193,330.039,400.699z"/>
					</g>
					<g>
						<path style="fill:#9B7FA5;" d="M341.173,391.028c0,0-1.599,5.403-3.349,5.176c-1.751-0.229-4.111-0.997-5.785-0.835
							c-1.675,0.162-4.339,0.148-3.958-5.559L341.173,391.028z"/>
						<path style="opacity:0.5;fill:#DCC6D3;" d="M337.824,396.204c1.315,0.171,2.544-2.836,3.074-4.343
							c-1.923,1.176-3.693,2.72-5.609,3.858C336.178,395.902,337.06,396.104,337.824,396.204z"/>
					</g>
				</g>
			</g>
		</g>
	</g>
</g>
</svg>
